<svg width="2568" height="951" viewBox="0 0 2568 951" fill="none" xmlns="http://www.w3.org/2000/svg">
<rect x="80" y="135.5" width="150" height="150" fill="white"/>
<rect x="80" y="135.5" width="150" height="150" stroke="#050505" stroke-width="8" stroke-linejoin="round"/>
<rect x="80" y="285.5" width="150" height="150" fill="white"/>
<rect x="80" y="285.5" width="150" height="150" stroke="#050505" stroke-width="8" stroke-linejoin="round"/>
<rect x="80" y="435.5" width="150" height="150" fill="white"/>
<rect x="80" y="435.5" width="150" height="150" stroke="#050505" stroke-width="8" stroke-linejoin="round"/>
<rect x="80" y="585.5" width="150" height="150" fill="white"/>
<rect x="80" y="585.5" width="150" height="150" stroke="#050505" stroke-width="8" stroke-linejoin="round"/>
<rect x="230" y="135.5" width="150" height="150" fill="white"/>
<rect x="230" y="135.5" width="150" height="150" stroke="#050505" stroke-width="8" stroke-linejoin="round"/>
<rect x="230" y="285.5" width="150" height="150" fill="white"/>
<rect x="230" y="285.5" width="150" height="150" stroke="#050505" stroke-width="8" stroke-linejoin="round"/>
<rect x="230" y="435.5" width="150" height="150" fill="white"/>
<rect x="230" y="435.5" width="150" height="150" stroke="#050505" stroke-width="8" stroke-linejoin="round"/>
<rect x="230" y="585.5" width="150" height="150" fill="white"/>
<rect x="230" y="585.5" width="150" height="150" stroke="#050505" stroke-width="8" stroke-linejoin="round"/>
<rect x="380" y="135.5" width="150" height="150" fill="white"/>
<rect x="380" y="135.5" width="150" height="150" stroke="#050505" stroke-width="8" stroke-linejoin="round"/>
<rect x="380" y="285.5" width="150" height="150" fill="white"/>
<rect x="380" y="285.5" width="150" height="150" stroke="#050505" stroke-width="8" stroke-linejoin="round"/>
<rect x="380" y="435.5" width="150" height="150" fill="white"/>
<rect x="380" y="435.5" width="150" height="150" stroke="#050505" stroke-width="8" stroke-linejoin="round"/>
<rect x="380" y="585.5" width="150" height="150" fill="white"/>
<rect x="380" y="585.5" width="150" height="150" stroke="#050505" stroke-width="8" stroke-linejoin="round"/>
<rect x="530" y="135.5" width="150" height="150" fill="white"/>
<rect x="530" y="135.5" width="150" height="150" stroke="#050505" stroke-width="8" stroke-linejoin="round"/>
<rect x="530" y="285.5" width="150" height="150" fill="white"/>
<rect x="530" y="285.5" width="150" height="150" stroke="#050505" stroke-width="8" stroke-linejoin="round"/>
<rect x="530" y="435.5" width="150" height="150" fill="white"/>
<rect x="530" y="435.5" width="150" height="150" stroke="#050505" stroke-width="8" stroke-linejoin="round"/>
<rect x="530" y="585.5" width="150" height="150" fill="white"/>
<rect x="530" y="585.5" width="150" height="150" stroke="#050505" stroke-width="8" stroke-linejoin="round"/>
<path d="M930 158.5L975.75 79.2587L1067.25 79.2587L1113 158.5L1067.25 237.741L975.75 237.741L930 158.5Z" fill="white" stroke="#050505" stroke-width="8" stroke-linejoin="round"/>
<path d="M930 316.5L975.75 237.259L1067.25 237.259L1113 316.5L1067.25 395.741H975.75L930 316.5Z" fill="white" stroke="#050505" stroke-width="8" stroke-linejoin="round"/>
<path d="M930 474.5L975.75 395.259H1067.25L1113 474.5L1067.25 553.741H975.75L930 474.5Z" fill="white" stroke="#050505" stroke-width="8" stroke-linejoin="round"/>
<path d="M930 632.5L975.75 553.259H1067.25L1113 632.5L1067.25 711.741H975.75L930 632.5Z" fill="white" stroke="#050505" stroke-width="8" stroke-linejoin="round"/>
<path d="M1068 237.5L1113.75 158.259L1205.25 158.259L1251 237.5L1205.25 316.741H1113.75L1068 237.5Z" fill="white" stroke="#050505" stroke-width="8" stroke-linejoin="round"/>
<path d="M1068 395.5L1113.75 316.259H1205.25L1251 395.5L1205.25 474.741H1113.75L1068 395.5Z" fill="white" stroke="#050505" stroke-width="8" stroke-linejoin="round"/>
<path d="M1068 553.5L1113.75 474.259H1205.25L1251 553.5L1205.25 632.741H1113.75L1068 553.5Z" fill="white" stroke="#050505" stroke-width="8" stroke-linejoin="round"/>
<path d="M1068 711.5L1113.75 632.259H1205.25L1251 711.5L1205.25 790.741H1113.75L1068 711.5Z" fill="white" stroke="#050505" stroke-width="8" stroke-linejoin="round"/>
<path d="M1206 158.5L1251.75 79.2587L1343.25 79.2587L1389 158.5L1343.25 237.741L1251.75 237.741L1206 158.5Z" fill="white" stroke="#050505" stroke-width="8" stroke-linejoin="round"/>
<path d="M1206 316.5L1251.75 237.259L1343.25 237.259L1389 316.5L1343.25 395.741H1251.75L1206 316.5Z" fill="white" stroke="#050505" stroke-width="8" stroke-linejoin="round"/>
<path d="M1206 474.5L1251.75 395.259H1343.25L1389 474.5L1343.25 553.741H1251.75L1206 474.5Z" fill="white" stroke="#050505" stroke-width="8" stroke-linejoin="round"/>
<path d="M1206 632.5L1251.75 553.259H1343.25L1389 632.5L1343.25 711.741H1251.75L1206 632.5Z" fill="white" stroke="#050505" stroke-width="8" stroke-linejoin="round"/>
<path d="M1344 237.5L1389.75 158.259L1481.25 158.259L1527 237.5L1481.25 316.741H1389.75L1344 237.5Z" fill="white" stroke="#050505" stroke-width="8" stroke-linejoin="round"/>
<path d="M1344 395.5L1389.75 316.259H1481.25L1527 395.5L1481.25 474.741H1389.75L1344 395.5Z" fill="white" stroke="#050505" stroke-width="8" stroke-linejoin="round"/>
<path d="M1344 553.5L1389.75 474.259H1481.25L1527 553.5L1481.25 632.741H1389.75L1344 553.5Z" fill="white" stroke="#050505" stroke-width="8" stroke-linejoin="round"/>
<path d="M1344 711.5L1389.75 632.259H1481.25L1527 711.5L1481.25 790.741H1389.75L1344 711.5Z" fill="white" stroke="#050505" stroke-width="8" stroke-linejoin="round"/>
<path d="M2330.5 137L2409.74 182.75V274.25L2330.5 320L2251.26 274.25V182.75L2330.5 137Z" fill="white" stroke="#050505" stroke-width="8" stroke-linejoin="round"/>
<path d="M2172.5 137L2251.74 182.75V274.25L2172.5 320L2093.26 274.25V182.75L2172.5 137Z" fill="white" stroke="#050505" stroke-width="8" stroke-linejoin="round"/>
<path d="M2014.5 137L2093.74 182.75V274.25L2014.5 320L1935.26 274.25V182.75L2014.5 137Z" fill="white" stroke="#050505" stroke-width="8" stroke-linejoin="round"/>
<path d="M1856.5 137L1935.74 182.75V274.25L1856.5 320L1777.26 274.25V182.75L1856.5 137Z" fill="white" stroke="#050505" stroke-width="8" stroke-linejoin="round"/>
<path d="M2409.5 275L2488.74 320.75V412.25L2409.5 458L2330.26 412.25V320.75L2409.5 275Z" fill="white" stroke="#050505" stroke-width="8" stroke-linejoin="round"/>
<path d="M2251.5 275L2330.74 320.75V412.25L2251.5 458L2172.26 412.25V320.75L2251.5 275Z" fill="white" stroke="#050505" stroke-width="8" stroke-linejoin="round"/>
<path d="M2093.5 275L2172.74 320.75V412.25L2093.5 458L2014.26 412.25V320.75L2093.5 275Z" fill="white" stroke="#050505" stroke-width="8" stroke-linejoin="round"/>
<path d="M1935.5 275L2014.74 320.75V412.25L1935.5 458L1856.26 412.25V320.75L1935.5 275Z" fill="white" stroke="#050505" stroke-width="8" stroke-linejoin="round"/>
<path d="M2330.5 413L2409.74 458.75V550.25L2330.5 596L2251.26 550.25V458.75L2330.5 413Z" fill="white" stroke="#050505" stroke-width="8" stroke-linejoin="round"/>
<path d="M2172.5 413L2251.74 458.75V550.25L2172.5 596L2093.26 550.25V458.75L2172.5 413Z" fill="white" stroke="#050505" stroke-width="8" stroke-linejoin="round"/>
<path d="M2014.5 413L2093.74 458.75V550.25L2014.5 596L1935.26 550.25V458.75L2014.5 413Z" fill="white" stroke="#050505" stroke-width="8" stroke-linejoin="round"/>
<path d="M1856.5 413L1935.74 458.75V550.25L1856.5 596L1777.26 550.25V458.75L1856.5 413Z" fill="white" stroke="#050505" stroke-width="8" stroke-linejoin="round"/>
<path d="M2409.5 551L2488.74 596.75V688.25L2409.5 734L2330.26 688.25V596.75L2409.5 551Z" fill="white" stroke="#050505" stroke-width="8" stroke-linejoin="round"/>
<path d="M2251.5 551L2330.74 596.75V688.25L2251.5 734L2172.26 688.25V596.75L2251.5 551Z" fill="white" stroke="#050505" stroke-width="8" stroke-linejoin="round"/>
<path d="M2093.5 551L2172.74 596.75V688.25L2093.5 734L2014.26 688.25V596.75L2093.5 551Z" fill="white" stroke="#050505" stroke-width="8" stroke-linejoin="round"/>
<path d="M1935.5 551L2014.74 596.75V688.25L1935.5 734L1856.26 688.25V596.75L1935.5 551Z" fill="white" stroke="#050505" stroke-width="8" stroke-linejoin="round"/>
<g opacity="0.5">
<g style="mix-blend-mode:exclusion">
<rect x="80" y="135.25" width="150" height="150" stroke="#7392FF" stroke-width="4" stroke-linejoin="round"/>
</g>
<g style="mix-blend-mode:exclusion">
<rect x="80" y="285.25" width="150" height="150" stroke="#7392FF" stroke-width="4" stroke-linejoin="round"/>
</g>
<g style="mix-blend-mode:exclusion">
<rect x="80" y="435.25" width="150" height="150" stroke="#7392FF" stroke-width="4" stroke-linejoin="round"/>
</g>
<g style="mix-blend-mode:exclusion">
<rect x="80" y="585.25" width="150" height="150" stroke="#7392FF" stroke-width="4" stroke-linejoin="round"/>
</g>
<g style="mix-blend-mode:exclusion">
<rect x="80" y="735.25" width="150" height="150" stroke="#7392FF" stroke-width="4" stroke-linejoin="round"/>
</g>
<g style="mix-blend-mode:exclusion">
<rect x="230" y="135.25" width="150" height="150" stroke="#7392FF" stroke-width="4" stroke-linejoin="round"/>
</g>
<g style="mix-blend-mode:exclusion">
<rect x="230" y="285.25" width="150" height="150" stroke="#7392FF" stroke-width="4" stroke-linejoin="round"/>
</g>
<g style="mix-blend-mode:exclusion">
<rect x="230" y="435.25" width="150" height="150" stroke="#7392FF" stroke-width="4" stroke-linejoin="round"/>
</g>
<g style="mix-blend-mode:exclusion">
<rect x="230" y="585.25" width="150" height="150" stroke="#7392FF" stroke-width="4" stroke-linejoin="round"/>
</g>
<g style="mix-blend-mode:exclusion">
<rect x="230" y="735.25" width="150" height="150" stroke="#7392FF" stroke-width="4" stroke-linejoin="round"/>
</g>
<g style="mix-blend-mode:exclusion">
<rect x="380" y="135.25" width="150" height="150" stroke="#7392FF" stroke-width="4" stroke-linejoin="round"/>
</g>
<g style="mix-blend-mode:exclusion">
<rect x="380" y="285.25" width="150" height="150" stroke="#7392FF" stroke-width="4" stroke-linejoin="round"/>
</g>
<g style="mix-blend-mode:exclusion">
<rect x="380" y="435.25" width="150" height="150" stroke="#7392FF" stroke-width="4" stroke-linejoin="round"/>
</g>
<g style="mix-blend-mode:exclusion">
<rect x="380" y="585.25" width="150" height="150" stroke="#7392FF" stroke-width="4" stroke-linejoin="round"/>
</g>
<g style="mix-blend-mode:exclusion">
<rect x="380" y="735.25" width="150" height="150" stroke="#7392FF" stroke-width="4" stroke-linejoin="round"/>
</g>
<g style="mix-blend-mode:exclusion">
<rect x="530" y="135.25" width="150" height="150" stroke="#7392FF" stroke-width="4" stroke-linejoin="round"/>
</g>
<g style="mix-blend-mode:exclusion">
<rect x="530" y="285.25" width="150" height="150" stroke="#7392FF" stroke-width="4" stroke-linejoin="round"/>
</g>
<g style="mix-blend-mode:exclusion">
<rect x="530" y="435.25" width="150" height="150" stroke="#7392FF" stroke-width="4" stroke-linejoin="round"/>
</g>
<g style="mix-blend-mode:exclusion">
<rect x="530" y="585.25" width="150" height="150" stroke="#7392FF" stroke-width="4" stroke-linejoin="round"/>
</g>
<g style="mix-blend-mode:exclusion">
<rect x="530" y="735.25" width="150" height="150" stroke="#7392FF" stroke-width="4" stroke-linejoin="round"/>
</g>
<g style="mix-blend-mode:exclusion">
<rect x="680" y="135.25" width="150" height="150" stroke="#7392FF" stroke-width="4" stroke-linejoin="round"/>
</g>
<g style="mix-blend-mode:exclusion">
<rect x="680" y="285.25" width="150" height="150" stroke="#7392FF" stroke-width="4" stroke-linejoin="round"/>
</g>
<g style="mix-blend-mode:exclusion">
<rect x="680" y="435.25" width="150" height="150" stroke="#7392FF" stroke-width="4" stroke-linejoin="round"/>
</g>
<g style="mix-blend-mode:exclusion">
<rect x="680" y="585.25" width="150" height="150" stroke="#7392FF" stroke-width="4" stroke-linejoin="round"/>
</g>
<g style="mix-blend-mode:exclusion">
<rect x="680" y="735.25" width="150" height="150" stroke="#7392FF" stroke-width="4" stroke-linejoin="round"/>
</g>
</g>
<g opacity="0.5">
<g style="mix-blend-mode:exclusion">
<rect x="947" y="81" width="137.5" height="157" stroke="#7392FF" stroke-width="4" stroke-linejoin="round"/>
</g>
<g style="mix-blend-mode:exclusion">
<rect x="947" y="238" width="137.5" height="157" stroke="#7392FF" stroke-width="4" stroke-linejoin="round"/>
</g>
<g style="mix-blend-mode:exclusion">
<rect x="947" y="395" width="137.5" height="157" stroke="#7392FF" stroke-width="4" stroke-linejoin="round"/>
</g>
<g style="mix-blend-mode:exclusion">
<rect x="947" y="552" width="137.5" height="157" stroke="#7392FF" stroke-width="4" stroke-linejoin="round"/>
</g>
<g style="mix-blend-mode:exclusion">
<rect x="947" y="709" width="137.5" height="157" stroke="#7392FF" stroke-width="4" stroke-linejoin="round"/>
</g>
<g style="mix-blend-mode:exclusion">
<rect x="1084.5" y="81" width="137.5" height="157" stroke="#7392FF" stroke-width="4" stroke-linejoin="round"/>
</g>
<g style="mix-blend-mode:exclusion">
<rect x="1084.5" y="238" width="137.5" height="157" stroke="#7392FF" stroke-width="4" stroke-linejoin="round"/>
</g>
<g style="mix-blend-mode:exclusion">
<rect x="1084.5" y="395" width="137.5" height="157" stroke="#7392FF" stroke-width="4" stroke-linejoin="round"/>
</g>
<g style="mix-blend-mode:exclusion">
<rect x="1084.5" y="552" width="137.5" height="157" stroke="#7392FF" stroke-width="4" stroke-linejoin="round"/>
</g>
<g style="mix-blend-mode:exclusion">
<rect x="1084.5" y="709" width="137.5" height="157" stroke="#7392FF" stroke-width="4" stroke-linejoin="round"/>
</g>
<g style="mix-blend-mode:exclusion">
<rect x="1222" y="81" width="137.5" height="157" stroke="#7392FF" stroke-width="4" stroke-linejoin="round"/>
</g>
<g style="mix-blend-mode:exclusion">
<rect x="1222" y="238" width="137.5" height="157" stroke="#7392FF" stroke-width="4" stroke-linejoin="round"/>
</g>
<g style="mix-blend-mode:exclusion">
<rect x="1222" y="395" width="137.5" height="157" stroke="#7392FF" stroke-width="4" stroke-linejoin="round"/>
</g>
<g style="mix-blend-mode:exclusion">
<rect x="1222" y="552" width="137.5" height="157" stroke="#7392FF" stroke-width="4" stroke-linejoin="round"/>
</g>
<g style="mix-blend-mode:exclusion">
<rect x="1222" y="709" width="137.5" height="157" stroke="#7392FF" stroke-width="4" stroke-linejoin="round"/>
</g>
<g style="mix-blend-mode:exclusion">
<rect x="1359.5" y="81" width="137.5" height="157" stroke="#7392FF" stroke-width="4" stroke-linejoin="round"/>
</g>
<g style="mix-blend-mode:exclusion">
<rect x="1359.5" y="238" width="137.5" height="157" stroke="#7392FF" stroke-width="4" stroke-linejoin="round"/>
</g>
<g style="mix-blend-mode:exclusion">
<rect x="1359.5" y="395" width="137.5" height="157" stroke="#7392FF" stroke-width="4" stroke-linejoin="round"/>
</g>
<g style="mix-blend-mode:exclusion">
<rect x="1359.5" y="552" width="137.5" height="157" stroke="#7392FF" stroke-width="4" stroke-linejoin="round"/>
</g>
<g style="mix-blend-mode:exclusion">
<rect x="1359.5" y="709" width="137.5" height="157" stroke="#7392FF" stroke-width="4" stroke-linejoin="round"/>
</g>
<g style="mix-blend-mode:exclusion">
<rect x="1497" y="81" width="137.5" height="157" stroke="#7392FF" stroke-width="4" stroke-linejoin="round"/>
</g>
<g style="mix-blend-mode:exclusion">
<rect x="1497" y="238" width="137.5" height="157" stroke="#7392FF" stroke-width="4" stroke-linejoin="round"/>
</g>
<g style="mix-blend-mode:exclusion">
<rect x="1497" y="395" width="137.5" height="157" stroke="#7392FF" stroke-width="4" stroke-linejoin="round"/>
</g>
<g style="mix-blend-mode:exclusion">
<rect x="1497" y="552" width="137.5" height="157" stroke="#7392FF" stroke-width="4" stroke-linejoin="round"/>
</g>
<g style="mix-blend-mode:exclusion">
<rect x="1497" y="709" width="137.5" height="157" stroke="#7392FF" stroke-width="4" stroke-linejoin="round"/>
</g>
</g>
<g opacity="0.5">
<g style="mix-blend-mode:exclusion">
<rect x="1777" y="162" width="157" height="137.5" stroke="#7392FF" stroke-width="4" stroke-linejoin="round"/>
</g>
<g style="mix-blend-mode:exclusion">
<rect x="1777" y="299.5" width="157" height="137.5" stroke="#7392FF" stroke-width="4" stroke-linejoin="round"/>
</g>
<g style="mix-blend-mode:exclusion">
<rect x="1777" y="437" width="157" height="137.5" stroke="#7392FF" stroke-width="4" stroke-linejoin="round"/>
</g>
<g style="mix-blend-mode:exclusion">
<rect x="1777" y="574.5" width="157" height="137.5" stroke="#7392FF" stroke-width="4" stroke-linejoin="round"/>
</g>
<g style="mix-blend-mode:exclusion">
<rect x="1777" y="712" width="157" height="137.5" stroke="#7392FF" stroke-width="4" stroke-linejoin="round"/>
</g>
<g style="mix-blend-mode:exclusion">
<rect x="1934" y="162" width="157" height="137.5" stroke="#7392FF" stroke-width="4" stroke-linejoin="round"/>
</g>
<g style="mix-blend-mode:exclusion">
<rect x="1934" y="299.5" width="157" height="137.5" stroke="#7392FF" stroke-width="4" stroke-linejoin="round"/>
</g>
<g style="mix-blend-mode:exclusion">
<rect x="1934" y="437" width="157" height="137.5" stroke="#7392FF" stroke-width="4" stroke-linejoin="round"/>
</g>
<g style="mix-blend-mode:exclusion">
<rect x="1934" y="574.5" width="157" height="137.5" stroke="#7392FF" stroke-width="4" stroke-linejoin="round"/>
</g>
<g style="mix-blend-mode:exclusion">
<rect x="1934" y="712" width="157" height="137.5" stroke="#7392FF" stroke-width="4" stroke-linejoin="round"/>
</g>
<g style="mix-blend-mode:exclusion">
<rect x="2091" y="162" width="157" height="137.5" stroke="#7392FF" stroke-width="4" stroke-linejoin="round"/>
</g>
<g style="mix-blend-mode:exclusion">
<rect x="2091" y="299.5" width="157" height="137.5" stroke="#7392FF" stroke-width="4" stroke-linejoin="round"/>
</g>
<g style="mix-blend-mode:exclusion">
<rect x="2091" y="437" width="157" height="137.5" stroke="#7392FF" stroke-width="4" stroke-linejoin="round"/>
</g>
<g style="mix-blend-mode:exclusion">
<rect x="2091" y="574.5" width="157" height="137.5" stroke="#7392FF" stroke-width="4" stroke-linejoin="round"/>
</g>
<g style="mix-blend-mode:exclusion">
<rect x="2091" y="712" width="157" height="137.5" stroke="#7392FF" stroke-width="4" stroke-linejoin="round"/>
</g>
<g style="mix-blend-mode:exclusion">
<rect x="2248" y="162" width="157" height="137.5" stroke="#7392FF" stroke-width="4" stroke-linejoin="round"/>
</g>
<g style="mix-blend-mode:exclusion">
<rect x="2248" y="299.5" width="157" height="137.5" stroke="#7392FF" stroke-width="4" stroke-linejoin="round"/>
</g>
<g style="mix-blend-mode:exclusion">
<rect x="2248" y="437" width="157" height="137.5" stroke="#7392FF" stroke-width="4" stroke-linejoin="round"/>
</g>
<g style="mix-blend-mode:exclusion">
<rect x="2248" y="574.5" width="157" height="137.5" stroke="#7392FF" stroke-width="4" stroke-linejoin="round"/>
</g>
<g style="mix-blend-mode:exclusion">
<rect x="2248" y="712" width="157" height="137.5" stroke="#7392FF" stroke-width="4" stroke-linejoin="round"/>
</g>
<g style="mix-blend-mode:exclusion">
<rect x="2405" y="162" width="157" height="137.5" stroke="#7392FF" stroke-width="4" stroke-linejoin="round"/>
</g>
<g style="mix-blend-mode:exclusion">
<rect x="2405" y="299.5" width="157" height="137.5" stroke="#7392FF" stroke-width="4" stroke-linejoin="round"/>
</g>
<g style="mix-blend-mode:exclusion">
<rect x="2405" y="437" width="157" height="137.5" stroke="#7392FF" stroke-width="4" stroke-linejoin="round"/>
</g>
<g style="mix-blend-mode:exclusion">
<rect x="2405" y="574.5" width="157" height="137.5" stroke="#7392FF" stroke-width="4" stroke-linejoin="round"/>
</g>
<g style="mix-blend-mode:exclusion">
<rect x="2405" y="712" width="157" height="137.5" stroke="#7392FF" stroke-width="4" stroke-linejoin="round"/>
</g>
</g>
<rect width="189" height="66" transform="translate(155 145)" fill="white"/>
<circle opacity="0.25" cx="155" cy="211" r="70" fill="#628EFF"/>
<rect x="155" y="145" width="189" height="66" fill="white"/>
<path d="M190.338 193.554C187.999 193.554 185.991 192.962 184.315 191.778C182.649 190.585 181.366 188.866 180.466 186.622C179.576 184.368 179.131 181.655 179.131 178.483C179.14 175.311 179.59 172.612 180.48 170.386C181.38 168.152 182.663 166.447 184.33 165.273C186.006 164.098 188.009 163.511 190.338 163.511C192.668 163.511 194.67 164.098 196.347 165.273C198.023 166.447 199.306 168.152 200.196 170.386C201.096 172.621 201.545 175.32 201.545 178.483C201.545 181.665 201.096 184.383 200.196 186.636C199.306 188.881 198.023 190.595 196.347 191.778C194.68 192.962 192.677 193.554 190.338 193.554ZM190.338 189.108C192.156 189.108 193.591 188.213 194.642 186.423C195.703 184.624 196.233 181.977 196.233 178.483C196.233 176.172 195.991 174.231 195.509 172.659C195.026 171.087 194.344 169.903 193.463 169.108C192.582 168.303 191.541 167.901 190.338 167.901C188.529 167.901 187.099 168.8 186.048 170.599C184.997 172.389 184.467 175.017 184.457 178.483C184.448 180.803 184.68 182.754 185.153 184.335C185.636 185.917 186.318 187.11 187.199 187.915C188.08 188.71 189.126 189.108 190.338 189.108ZM208.357 193.312C207.495 193.312 206.756 193.009 206.141 192.403C205.525 191.797 205.222 191.059 205.232 190.188C205.222 189.335 205.525 188.606 206.141 188C206.756 187.394 207.495 187.091 208.357 187.091C209.19 187.091 209.914 187.394 210.53 188C211.155 188.606 211.472 189.335 211.482 190.188C211.472 190.765 211.321 191.291 211.027 191.764C210.743 192.238 210.364 192.616 209.891 192.901C209.427 193.175 208.915 193.312 208.357 193.312ZM226.496 193.398C224.602 193.398 222.907 193.043 221.411 192.332C219.914 191.613 218.726 190.628 217.845 189.378C216.974 188.128 216.51 186.698 216.453 185.088H221.567C221.661 186.281 222.178 187.257 223.115 188.014C224.053 188.762 225.179 189.136 226.496 189.136C227.528 189.136 228.446 188.9 229.251 188.426C230.056 187.953 230.691 187.295 231.155 186.452C231.619 185.609 231.846 184.648 231.837 183.568C231.846 182.47 231.614 181.494 231.141 180.642C230.667 179.79 230.018 179.122 229.195 178.639C228.371 178.147 227.424 177.901 226.354 177.901C225.482 177.891 224.625 178.052 223.783 178.384C222.94 178.715 222.272 179.151 221.78 179.69L217.021 178.909L218.541 163.909H235.416V168.312H222.902L222.064 176.026H222.234C222.774 175.391 223.536 174.866 224.521 174.449C225.506 174.023 226.586 173.81 227.76 173.81C229.521 173.81 231.093 174.226 232.476 175.06C233.858 175.884 234.947 177.02 235.743 178.469C236.538 179.918 236.936 181.575 236.936 183.44C236.936 185.363 236.491 187.077 235.601 188.582C234.72 190.079 233.494 191.258 231.922 192.119C230.359 192.972 228.551 193.398 226.496 193.398ZM246.812 189.023L246.627 190.585C246.495 191.778 246.258 192.991 245.917 194.222C245.585 195.462 245.235 196.603 244.866 197.645C244.496 198.687 244.198 199.506 243.971 200.102H240.505C240.638 199.525 240.817 198.739 241.045 197.744C241.281 196.75 241.509 195.633 241.727 194.392C241.944 193.152 242.091 191.892 242.167 190.614L242.266 189.023H246.812ZM272.291 193.554C269.952 193.554 267.945 192.962 266.268 191.778C264.602 190.585 263.319 188.866 262.419 186.622C261.529 184.368 261.084 181.655 261.084 178.483C261.093 175.311 261.543 172.612 262.433 170.386C263.333 168.152 264.616 166.447 266.283 165.273C267.959 164.098 269.962 163.511 272.291 163.511C274.621 163.511 276.624 164.098 278.3 165.273C279.976 166.447 281.259 168.152 282.149 170.386C283.049 172.621 283.499 175.32 283.499 178.483C283.499 181.665 283.049 184.383 282.149 186.636C281.259 188.881 279.976 190.595 278.3 191.778C276.633 192.962 274.63 193.554 272.291 193.554ZM272.291 189.108C274.109 189.108 275.544 188.213 276.595 186.423C277.656 184.624 278.186 181.977 278.186 178.483C278.186 176.172 277.945 174.231 277.462 172.659C276.979 171.087 276.297 169.903 275.416 169.108C274.536 168.303 273.494 167.901 272.291 167.901C270.482 167.901 269.053 168.8 268.001 170.599C266.95 172.389 266.42 175.017 266.411 178.483C266.401 180.803 266.633 182.754 267.107 184.335C267.589 185.917 268.271 187.11 269.152 187.915C270.033 188.71 271.079 189.108 272.291 189.108ZM290.31 193.312C289.448 193.312 288.709 193.009 288.094 192.403C287.478 191.797 287.175 191.059 287.185 190.188C287.175 189.335 287.478 188.606 288.094 188C288.709 187.394 289.448 187.091 290.31 187.091C291.143 187.091 291.867 187.394 292.483 188C293.108 188.606 293.425 189.335 293.435 190.188C293.425 190.765 293.274 191.291 292.98 191.764C292.696 192.238 292.317 192.616 291.844 192.901C291.38 193.175 290.868 193.312 290.31 193.312ZM308.449 193.398C306.555 193.398 304.86 193.043 303.364 192.332C301.867 191.613 300.679 190.628 299.798 189.378C298.927 188.128 298.463 186.698 298.406 185.088H303.52C303.615 186.281 304.131 187.257 305.068 188.014C306.006 188.762 307.133 189.136 308.449 189.136C309.481 189.136 310.4 188.9 311.205 188.426C312.009 187.953 312.644 187.295 313.108 186.452C313.572 185.609 313.799 184.648 313.79 183.568C313.799 182.47 313.567 181.494 313.094 180.642C312.62 179.79 311.972 179.122 311.148 178.639C310.324 178.147 309.377 177.901 308.307 177.901C307.436 177.891 306.579 178.052 305.736 178.384C304.893 178.715 304.225 179.151 303.733 179.69L298.974 178.909L300.494 163.909H317.369V168.312H304.855L304.017 176.026H304.188C304.727 175.391 305.49 174.866 306.474 174.449C307.459 174.023 308.539 173.81 309.713 173.81C311.474 173.81 313.046 174.226 314.429 175.06C315.812 175.884 316.901 177.02 317.696 178.469C318.491 179.918 318.889 181.575 318.889 183.44C318.889 185.363 318.444 187.077 317.554 188.582C316.673 190.079 315.447 191.258 313.875 192.119C312.312 192.972 310.504 193.398 308.449 193.398Z" fill="#050505"/>
<rect x="155" y="145" width="189" height="66" stroke="#050505" stroke-width="3"/>
<circle cx="155" cy="211" r="20" fill="#628EFF"/>
<rect width="108" height="66" transform="translate(230 369)" fill="white"/>
<circle opacity="0.25" cx="230" cy="435" r="145" fill="#25AC19"/>
<rect x="230" y="369" width="108" height="66" fill="white"/>
<path d="M266.418 387.909V417H261.148V393.037H260.977L254.173 397.384V392.554L261.403 387.909H266.418ZM278.296 413.023L278.112 414.585C277.979 415.778 277.742 416.991 277.401 418.222C277.07 419.462 276.719 420.603 276.35 421.645C275.981 422.687 275.683 423.506 275.455 424.102H271.989C272.122 423.525 272.302 422.739 272.529 421.744C272.766 420.75 272.993 419.633 273.211 418.392C273.429 417.152 273.576 415.892 273.651 414.614L273.751 413.023H278.296ZM293.023 417V413.193L303.122 403.293C304.088 402.317 304.893 401.451 305.537 400.693C306.181 399.936 306.664 399.202 306.986 398.491C307.308 397.781 307.469 397.024 307.469 396.219C307.469 395.3 307.26 394.514 306.844 393.861C306.427 393.198 305.854 392.687 305.125 392.327C304.396 391.967 303.567 391.787 302.639 391.787C301.683 391.787 300.845 391.986 300.125 392.384C299.405 392.772 298.847 393.326 298.449 394.045C298.061 394.765 297.866 395.622 297.866 396.616H292.852C292.852 394.77 293.274 393.165 294.116 391.801C294.959 390.437 296.119 389.382 297.597 388.634C299.083 387.885 300.788 387.511 302.71 387.511C304.661 387.511 306.375 387.876 307.852 388.605C309.33 389.334 310.475 390.333 311.29 391.602C312.114 392.871 312.526 394.32 312.526 395.949C312.526 397.038 312.317 398.108 311.901 399.159C311.484 400.21 310.75 401.375 309.699 402.653C308.657 403.932 307.194 405.48 305.31 407.298L300.295 412.398V412.597H312.966V417H293.023Z" fill="#050505"/>
<rect x="230" y="369" width="108" height="66" stroke="#050505" stroke-width="3"/>
<circle cx="230" cy="435" r="20" fill="#25AC19"/>
<rect width="180" height="66" transform="translate(455 294)" fill="white"/>
<circle opacity="0.25" cx="455" cy="360" r="70" fill="#FF3998"/>
<rect x="455" y="294" width="180" height="66" fill="white"/>
<path d="M479.585 342V338.193L489.685 328.293C490.651 327.317 491.455 326.451 492.099 325.693C492.743 324.936 493.226 324.202 493.548 323.491C493.87 322.781 494.031 322.024 494.031 321.219C494.031 320.3 493.823 319.514 493.406 318.861C492.99 318.198 492.417 317.687 491.688 317.327C490.958 316.967 490.13 316.787 489.202 316.787C488.245 316.787 487.407 316.986 486.688 317.384C485.968 317.772 485.409 318.326 485.011 319.045C484.623 319.765 484.429 320.622 484.429 321.616H479.415C479.415 319.77 479.836 318.165 480.679 316.801C481.522 315.437 482.682 314.382 484.159 313.634C485.646 312.885 487.35 312.511 489.273 312.511C491.223 312.511 492.938 312.876 494.415 313.605C495.892 314.334 497.038 315.333 497.852 316.602C498.676 317.871 499.088 319.32 499.088 320.949C499.088 322.038 498.88 323.108 498.463 324.159C498.046 325.21 497.313 326.375 496.261 327.653C495.22 328.932 493.757 330.48 491.872 332.298L486.858 337.398V337.597H499.528V342H479.585ZM507.653 342.312C506.792 342.312 506.053 342.009 505.438 341.403C504.822 340.797 504.519 340.059 504.528 339.188C504.519 338.335 504.822 337.606 505.438 337C506.053 336.394 506.792 336.091 507.653 336.091C508.487 336.091 509.211 336.394 509.827 337C510.452 337.606 510.769 338.335 510.778 339.188C510.769 339.765 510.617 340.291 510.324 340.764C510.04 341.238 509.661 341.616 509.188 341.901C508.723 342.175 508.212 342.312 507.653 342.312ZM525.793 342.398C523.899 342.398 522.204 342.043 520.707 341.332C519.211 340.613 518.023 339.628 517.142 338.378C516.271 337.128 515.807 335.698 515.75 334.088H520.864C520.958 335.281 521.474 336.257 522.412 337.014C523.349 337.762 524.476 338.136 525.793 338.136C526.825 338.136 527.743 337.9 528.548 337.426C529.353 336.953 529.988 336.295 530.452 335.452C530.916 334.609 531.143 333.648 531.134 332.568C531.143 331.47 530.911 330.494 530.438 329.642C529.964 328.79 529.315 328.122 528.491 327.639C527.668 327.147 526.721 326.901 525.651 326.901C524.779 326.891 523.922 327.052 523.08 327.384C522.237 327.715 521.569 328.151 521.077 328.69L516.318 327.909L517.838 312.909H534.713V317.312H522.199L521.361 325.026H521.531C522.071 324.391 522.833 323.866 523.818 323.449C524.803 323.023 525.883 322.81 527.057 322.81C528.818 322.81 530.39 323.226 531.773 324.06C533.155 324.884 534.244 326.02 535.04 327.469C535.835 328.918 536.233 330.575 536.233 332.44C536.233 334.363 535.788 336.077 534.898 337.582C534.017 339.079 532.791 340.258 531.219 341.119C529.656 341.972 527.848 342.398 525.793 342.398ZM546.109 338.023L545.924 339.585C545.791 340.778 545.555 341.991 545.214 343.222C544.882 344.462 544.532 345.603 544.163 346.645C543.793 347.687 543.495 348.506 543.268 349.102H539.802C539.934 348.525 540.114 347.739 540.342 346.744C540.578 345.75 540.806 344.633 541.023 343.392C541.241 342.152 541.388 340.892 541.464 339.614L541.563 338.023H546.109ZM572.668 312.909V342H567.398V318.037H567.227L560.423 322.384V317.554L567.653 312.909H572.668ZM581.677 342.312C580.815 342.312 580.076 342.009 579.461 341.403C578.845 340.797 578.542 340.059 578.552 339.188C578.542 338.335 578.845 337.606 579.461 337C580.076 336.394 580.815 336.091 581.677 336.091C582.51 336.091 583.235 336.394 583.85 337C584.475 337.606 584.792 338.335 584.802 339.188C584.792 339.765 584.641 340.291 584.347 340.764C584.063 341.238 583.684 341.616 583.211 341.901C582.747 342.175 582.236 342.312 581.677 342.312ZM599.816 342.398C597.922 342.398 596.227 342.043 594.731 341.332C593.235 340.613 592.046 339.628 591.165 338.378C590.294 337.128 589.83 335.698 589.773 334.088H594.887C594.982 335.281 595.498 336.257 596.435 337.014C597.373 337.762 598.5 338.136 599.816 338.136C600.848 338.136 601.767 337.9 602.572 337.426C603.377 336.953 604.011 336.295 604.475 335.452C604.939 334.609 605.166 333.648 605.157 332.568C605.166 331.47 604.934 330.494 604.461 329.642C603.987 328.79 603.339 328.122 602.515 327.639C601.691 327.147 600.744 326.901 599.674 326.901C598.803 326.891 597.946 327.052 597.103 327.384C596.26 327.715 595.593 328.151 595.1 328.69L590.342 327.909L591.862 312.909H608.737V317.312H596.222L595.384 325.026H595.555C596.094 324.391 596.857 323.866 597.842 323.449C598.826 323.023 599.906 322.81 601.08 322.81C602.842 322.81 604.414 323.226 605.796 324.06C607.179 324.884 608.268 326.02 609.063 327.469C609.859 328.918 610.256 330.575 610.256 332.44C610.256 334.363 609.811 336.077 608.921 337.582C608.04 339.079 606.814 340.258 605.242 341.119C603.68 341.972 601.871 342.398 599.816 342.398Z" fill="#050505"/>
<rect x="455" y="294" width="180" height="66" stroke="#050505" stroke-width="3"/>
<circle cx="455" cy="360" r="20" fill="#FF3998"/>
<rect width="180" height="66" transform="translate(305 595)" fill="white"/>
<circle opacity="0.25" cx="305" cy="661" r="70" fill="#FF8947"/>
<rect x="305" y="595" width="180" height="66" fill="white"/>
<path d="M341.418 613.909V643H336.148V619.037H335.977L329.173 623.384V618.554L336.403 613.909H341.418ZM350.427 643.312C349.565 643.312 348.826 643.009 348.211 642.403C347.595 641.797 347.292 641.059 347.302 640.188C347.292 639.335 347.595 638.606 348.211 638C348.826 637.394 349.565 637.091 350.427 637.091C351.26 637.091 351.985 637.394 352.6 638C353.225 638.606 353.542 639.335 353.552 640.188C353.542 640.765 353.391 641.291 353.097 641.764C352.813 642.238 352.434 642.616 351.961 642.901C351.497 643.175 350.986 643.312 350.427 643.312ZM368.566 643.398C366.672 643.398 364.977 643.043 363.481 642.332C361.985 641.613 360.796 640.628 359.915 639.378C359.044 638.128 358.58 636.698 358.523 635.088H363.637C363.732 636.281 364.248 637.257 365.185 638.014C366.123 638.762 367.25 639.136 368.566 639.136C369.598 639.136 370.517 638.9 371.322 638.426C372.127 637.953 372.761 637.295 373.225 636.452C373.689 635.609 373.916 634.648 373.907 633.568C373.916 632.47 373.684 631.494 373.211 630.642C372.737 629.79 372.089 629.122 371.265 628.639C370.441 628.147 369.494 627.901 368.424 627.901C367.553 627.891 366.696 628.052 365.853 628.384C365.01 628.715 364.343 629.151 363.85 629.69L359.092 628.909L360.612 613.909H377.487V618.312H364.972L364.134 626.026H364.305C364.844 625.391 365.607 624.866 366.592 624.449C367.576 624.023 368.656 623.81 369.83 623.81C371.592 623.81 373.164 624.226 374.546 625.06C375.929 625.884 377.018 627.02 377.813 628.469C378.609 629.918 379.006 631.575 379.006 633.44C379.006 635.363 378.561 637.077 377.671 638.582C376.79 640.079 375.564 641.258 373.992 642.119C372.43 642.972 370.621 643.398 368.566 643.398ZM388.882 639.023L388.697 640.585C388.565 641.778 388.328 642.991 387.987 644.222C387.656 645.462 387.305 646.603 386.936 647.645C386.567 648.687 386.268 649.506 386.041 650.102H382.575C382.708 649.525 382.888 648.739 383.115 647.744C383.352 646.75 383.579 645.633 383.797 644.392C384.015 643.152 384.161 641.892 384.237 640.614L384.337 639.023H388.882ZM414.049 643.398C412.004 643.398 410.185 643.047 408.594 642.347C407.013 641.646 405.763 640.67 404.844 639.42C403.926 638.17 403.438 636.726 403.381 635.088H408.722C408.77 635.874 409.03 636.561 409.504 637.148C409.977 637.725 410.607 638.175 411.393 638.497C412.179 638.819 413.059 638.98 414.035 638.98C415.076 638.98 416 638.8 416.805 638.44C417.61 638.071 418.239 637.56 418.694 636.906C419.148 636.253 419.371 635.5 419.362 634.648C419.371 633.767 419.144 632.991 418.68 632.318C418.216 631.646 417.543 631.12 416.663 630.741C415.791 630.363 414.74 630.173 413.509 630.173H410.938V626.111H413.509C414.522 626.111 415.408 625.936 416.165 625.585C416.933 625.235 417.534 624.742 417.969 624.108C418.405 623.464 418.618 622.721 418.609 621.878C418.618 621.054 418.433 620.339 418.055 619.733C417.685 619.117 417.16 618.639 416.478 618.298C415.806 617.957 415.015 617.787 414.106 617.787C413.216 617.787 412.392 617.948 411.634 618.27C410.877 618.592 410.266 619.051 409.802 619.648C409.338 620.235 409.092 620.936 409.063 621.75H403.992C404.03 620.121 404.499 618.691 405.398 617.46C406.308 616.22 407.52 615.254 409.035 614.562C410.55 613.862 412.25 613.511 414.134 613.511C416.076 613.511 417.761 613.876 419.191 614.605C420.63 615.325 421.743 616.295 422.529 617.517C423.315 618.739 423.708 620.088 423.708 621.565C423.718 623.204 423.235 624.577 422.259 625.685C421.293 626.793 420.024 627.517 418.452 627.858V628.085C420.498 628.369 422.065 629.127 423.154 630.358C424.253 631.58 424.797 633.099 424.788 634.918C424.788 636.546 424.324 638.005 423.396 639.293C422.477 640.571 421.208 641.575 419.589 642.304C417.979 643.033 416.132 643.398 414.049 643.398ZM432.028 643.312C431.167 643.312 430.428 643.009 429.812 642.403C429.197 641.797 428.894 641.059 428.903 640.188C428.894 639.335 429.197 638.606 429.812 638C430.428 637.394 431.167 637.091 432.028 637.091C432.862 637.091 433.586 637.394 434.202 638C434.827 638.606 435.144 639.335 435.153 640.188C435.144 640.765 434.992 641.291 434.699 641.764C434.415 642.238 434.036 642.616 433.562 642.901C433.098 643.175 432.587 643.312 432.028 643.312ZM450.168 643.398C448.274 643.398 446.579 643.043 445.082 642.332C443.586 641.613 442.398 640.628 441.517 639.378C440.646 638.128 440.182 636.698 440.125 635.088H445.239C445.333 636.281 445.849 637.257 446.787 638.014C447.724 638.762 448.851 639.136 450.168 639.136C451.2 639.136 452.118 638.9 452.923 638.426C453.728 637.953 454.363 637.295 454.827 636.452C455.291 635.609 455.518 634.648 455.509 633.568C455.518 632.47 455.286 631.494 454.812 630.642C454.339 629.79 453.69 629.122 452.866 628.639C452.043 628.147 451.096 627.901 450.026 627.901C449.154 627.891 448.297 628.052 447.455 628.384C446.612 628.715 445.944 629.151 445.452 629.69L440.693 628.909L442.213 613.909H459.088V618.312H446.574L445.736 626.026H445.906C446.446 625.391 447.208 624.866 448.193 624.449C449.178 624.023 450.258 623.81 451.432 623.81C453.193 623.81 454.765 624.226 456.148 625.06C457.53 625.884 458.619 627.02 459.415 628.469C460.21 629.918 460.608 631.575 460.608 633.44C460.608 635.363 460.163 637.077 459.273 638.582C458.392 640.079 457.166 641.258 455.594 642.119C454.031 642.972 452.223 643.398 450.168 643.398Z" fill="#050505"/>
<rect x="305" y="595" width="180" height="66" stroke="#050505" stroke-width="3"/>
<circle cx="305" cy="661" r="20" fill="#FF8947"/>
<rect width="203" height="66" transform="translate(1068 330)" fill="white"/>
<circle opacity="0.25" cx="1068" cy="396" r="145" fill="#25AC19"/>
<rect x="1068" y="330" width="203" height="66" fill="white"/>
<path d="M1103.34 378.554C1101 378.554 1098.99 377.962 1097.32 376.778C1095.65 375.585 1094.37 373.866 1093.47 371.622C1092.58 369.368 1092.13 366.655 1092.13 363.483C1092.14 360.311 1092.59 357.612 1093.48 355.386C1094.38 353.152 1095.66 351.447 1097.33 350.273C1099.01 349.098 1101.01 348.511 1103.34 348.511C1105.67 348.511 1107.67 349.098 1109.35 350.273C1111.02 351.447 1112.31 353.152 1113.2 355.386C1114.1 357.621 1114.55 360.32 1114.55 363.483C1114.55 366.665 1114.1 369.383 1113.2 371.636C1112.31 373.881 1111.02 375.595 1109.35 376.778C1107.68 377.962 1105.68 378.554 1103.34 378.554ZM1103.34 374.108C1105.16 374.108 1106.59 373.213 1107.64 371.423C1108.7 369.624 1109.23 366.977 1109.23 363.483C1109.23 361.172 1108.99 359.231 1108.51 357.659C1108.03 356.087 1107.34 354.903 1106.46 354.108C1105.58 353.303 1104.54 352.901 1103.34 352.901C1101.53 352.901 1100.1 353.8 1099.05 355.599C1098 357.389 1097.47 360.017 1097.46 363.483C1097.45 365.803 1097.68 367.754 1098.15 369.335C1098.64 370.917 1099.32 372.11 1100.2 372.915C1101.08 373.71 1102.13 374.108 1103.34 374.108ZM1121.36 378.312C1120.49 378.312 1119.76 378.009 1119.14 377.403C1118.53 376.797 1118.22 376.059 1118.23 375.188C1118.22 374.335 1118.53 373.606 1119.14 373C1119.76 372.394 1120.49 372.091 1121.36 372.091C1122.19 372.091 1122.91 372.394 1123.53 373C1124.15 373.606 1124.47 374.335 1124.48 375.188C1124.47 375.765 1124.32 376.291 1124.03 376.764C1123.74 377.238 1123.36 377.616 1122.89 377.901C1122.43 378.175 1121.92 378.312 1121.36 378.312ZM1138.98 378.398C1136.87 378.398 1134.99 378.043 1133.36 377.332C1131.73 376.622 1130.45 375.652 1129.52 374.42C1128.6 373.18 1128.15 371.774 1128.16 370.202C1128.15 368.98 1128.41 367.858 1128.95 366.835C1129.49 365.812 1130.22 364.96 1131.14 364.278C1132.07 363.587 1133.1 363.147 1134.24 362.957V362.759C1132.74 362.427 1131.53 361.665 1130.6 360.472C1129.68 359.269 1129.23 357.882 1129.24 356.31C1129.23 354.813 1129.64 353.478 1130.49 352.304C1131.33 351.13 1132.48 350.206 1133.95 349.534C1135.42 348.852 1137.1 348.511 1138.98 348.511C1140.85 348.511 1142.51 348.852 1143.97 349.534C1145.43 350.206 1146.59 351.13 1147.43 352.304C1148.28 353.478 1148.71 354.813 1148.71 356.31C1148.71 357.882 1148.24 359.269 1147.3 360.472C1146.38 361.665 1145.18 362.427 1143.71 362.759V362.957C1144.85 363.147 1145.87 363.587 1146.78 364.278C1147.7 364.96 1148.43 365.812 1148.97 366.835C1149.52 367.858 1149.79 368.98 1149.79 370.202C1149.79 371.774 1149.33 373.18 1148.4 374.42C1147.47 375.652 1146.19 376.622 1144.56 377.332C1142.94 378.043 1141.08 378.398 1138.98 378.398ZM1138.98 374.335C1140.07 374.335 1141.02 374.151 1141.82 373.781C1142.63 373.402 1143.25 372.872 1143.7 372.19C1144.14 371.509 1144.37 370.723 1144.38 369.832C1144.37 368.904 1144.13 368.085 1143.65 367.375C1143.19 366.655 1142.55 366.092 1141.74 365.685C1140.93 365.277 1140.01 365.074 1138.98 365.074C1137.94 365.074 1137.01 365.277 1136.2 365.685C1135.38 366.092 1134.74 366.655 1134.26 367.375C1133.8 368.085 1133.57 368.904 1133.58 369.832C1133.57 370.723 1133.79 371.509 1134.24 372.19C1134.68 372.863 1135.31 373.388 1136.11 373.767C1136.93 374.146 1137.88 374.335 1138.98 374.335ZM1138.98 361.082C1139.87 361.082 1140.66 360.902 1141.34 360.543C1142.03 360.183 1142.57 359.681 1142.97 359.037C1143.37 358.393 1143.57 357.65 1143.58 356.807C1143.57 355.973 1143.37 355.244 1142.99 354.619C1142.6 353.985 1142.06 353.497 1141.37 353.156C1140.68 352.806 1139.88 352.631 1138.98 352.631C1138.06 352.631 1137.25 352.806 1136.55 353.156C1135.86 353.497 1135.32 353.985 1134.93 354.619C1134.55 355.244 1134.37 355.973 1134.38 356.807C1134.37 357.65 1134.56 358.393 1134.95 359.037C1135.34 359.671 1135.89 360.173 1136.58 360.543C1137.28 360.902 1138.08 361.082 1138.98 361.082ZM1164.9 378.398C1162.86 378.398 1161.04 378.047 1159.45 377.347C1157.86 376.646 1156.61 375.67 1155.7 374.42C1154.78 373.17 1154.29 371.726 1154.23 370.088H1159.57C1159.62 370.874 1159.88 371.561 1160.36 372.148C1160.83 372.725 1161.46 373.175 1162.24 373.497C1163.03 373.819 1163.91 373.98 1164.89 373.98C1165.93 373.98 1166.85 373.8 1167.66 373.44C1168.46 373.071 1169.09 372.56 1169.55 371.906C1170 371.253 1170.22 370.5 1170.21 369.648C1170.22 368.767 1170 367.991 1169.53 367.318C1169.07 366.646 1168.39 366.12 1167.51 365.741C1166.64 365.363 1165.59 365.173 1164.36 365.173H1161.79V361.111H1164.36C1165.37 361.111 1166.26 360.936 1167.02 360.585C1167.78 360.235 1168.39 359.742 1168.82 359.108C1169.26 358.464 1169.47 357.721 1169.46 356.878C1169.47 356.054 1169.29 355.339 1168.91 354.733C1168.54 354.117 1168.01 353.639 1167.33 353.298C1166.66 352.957 1165.87 352.787 1164.96 352.787C1164.07 352.787 1163.24 352.948 1162.49 353.27C1161.73 353.592 1161.12 354.051 1160.65 354.648C1160.19 355.235 1159.94 355.936 1159.91 356.75H1154.84C1154.88 355.121 1155.35 353.691 1156.25 352.46C1157.16 351.22 1158.37 350.254 1159.89 349.562C1161.4 348.862 1163.1 348.511 1164.99 348.511C1166.93 348.511 1168.61 348.876 1170.04 349.605C1171.48 350.325 1172.59 351.295 1173.38 352.517C1174.17 353.739 1174.56 355.088 1174.56 356.565C1174.57 358.204 1174.09 359.577 1173.11 360.685C1172.14 361.793 1170.88 362.517 1169.3 362.858V363.085C1171.35 363.369 1172.92 364.127 1174.01 365.358C1175.1 366.58 1175.65 368.099 1175.64 369.918C1175.64 371.546 1175.18 373.005 1174.25 374.293C1173.33 375.571 1172.06 376.575 1170.44 377.304C1168.83 378.033 1166.98 378.398 1164.9 378.398ZM1190.96 378.398C1188.91 378.398 1187.09 378.047 1185.5 377.347C1183.92 376.646 1182.67 375.67 1181.75 374.42C1180.83 373.17 1180.34 371.726 1180.29 370.088H1185.63C1185.68 370.874 1185.94 371.561 1186.41 372.148C1186.88 372.725 1187.51 373.175 1188.3 373.497C1189.08 373.819 1189.97 373.98 1190.94 373.98C1191.98 373.98 1192.91 373.8 1193.71 373.44C1194.52 373.071 1195.15 372.56 1195.6 371.906C1196.05 371.253 1196.28 370.5 1196.27 369.648C1196.28 368.767 1196.05 367.991 1195.59 367.318C1195.12 366.646 1194.45 366.12 1193.57 365.741C1192.7 365.363 1191.65 365.173 1190.42 365.173H1187.84V361.111H1190.42C1191.43 361.111 1192.31 360.936 1193.07 360.585C1193.84 360.235 1194.44 359.742 1194.88 359.108C1195.31 358.464 1195.52 357.721 1195.51 356.878C1195.52 356.054 1195.34 355.339 1194.96 354.733C1194.59 354.117 1194.07 353.639 1193.38 353.298C1192.71 352.957 1191.92 352.787 1191.01 352.787C1190.12 352.787 1189.3 352.948 1188.54 353.27C1187.78 353.592 1187.17 354.051 1186.71 354.648C1186.24 355.235 1186 355.936 1185.97 356.75H1180.9C1180.94 355.121 1181.41 353.691 1182.3 352.46C1183.21 351.22 1184.43 350.254 1185.94 349.562C1187.46 348.862 1189.16 348.511 1191.04 348.511C1192.98 348.511 1194.67 348.876 1196.1 349.605C1197.54 350.325 1198.65 351.295 1199.44 352.517C1200.22 353.739 1200.61 355.088 1200.61 356.565C1200.62 358.204 1200.14 359.577 1199.17 360.685C1198.2 361.793 1196.93 362.517 1195.36 362.858V363.085C1197.4 363.369 1198.97 364.127 1200.06 365.358C1201.16 366.58 1201.7 368.099 1201.69 369.918C1201.69 371.546 1201.23 373.005 1200.3 374.293C1199.38 375.571 1198.11 376.575 1196.5 377.304C1194.89 378.033 1193.04 378.398 1190.96 378.398ZM1211.8 374.023L1211.62 375.585C1211.49 376.778 1211.25 377.991 1210.91 379.222C1210.58 380.462 1210.23 381.603 1209.86 382.645C1209.49 383.687 1209.19 384.506 1208.96 385.102H1205.5C1205.63 384.525 1205.81 383.739 1206.04 382.744C1206.27 381.75 1206.5 380.633 1206.72 379.392C1206.94 378.152 1207.08 376.892 1207.16 375.614L1207.26 374.023H1211.8ZM1226.53 378V374.193L1236.63 364.293C1237.6 363.317 1238.4 362.451 1239.04 361.693C1239.69 360.936 1240.17 360.202 1240.49 359.491C1240.82 358.781 1240.98 358.024 1240.98 357.219C1240.98 356.3 1240.77 355.514 1240.35 354.861C1239.93 354.198 1239.36 353.687 1238.63 353.327C1237.9 352.967 1237.08 352.787 1236.15 352.787C1235.19 352.787 1234.35 352.986 1233.63 353.384C1232.91 353.772 1232.35 354.326 1231.96 355.045C1231.57 355.765 1231.37 356.622 1231.37 357.616H1226.36C1226.36 355.77 1226.78 354.165 1227.62 352.801C1228.47 351.437 1229.63 350.382 1231.1 349.634C1232.59 348.885 1234.3 348.511 1236.22 348.511C1238.17 348.511 1239.88 348.876 1241.36 349.605C1242.84 350.334 1243.98 351.333 1244.8 352.602C1245.62 353.871 1246.03 355.32 1246.03 356.949C1246.03 358.038 1245.83 359.108 1245.41 360.159C1244.99 361.21 1244.26 362.375 1243.21 363.653C1242.17 364.932 1240.7 366.48 1238.82 368.298L1233.8 373.398V373.597H1246.47V378H1226.53Z" fill="#050505"/>
<rect x="1068" y="330" width="203" height="66" stroke="#050505" stroke-width="3"/>
<circle cx="1068" cy="396" r="20" fill="#25AC19"/>
<rect width="180" height="66" transform="translate(1298 251)" fill="white"/>
<circle opacity="0.25" cx="1298" cy="317" r="70" fill="#FF3998"/>
<rect x="1298" y="251" width="180" height="66" fill="white"/>
<path d="M1322.59 299V295.193L1332.68 285.293C1333.65 284.317 1334.46 283.451 1335.1 282.693C1335.74 281.936 1336.23 281.202 1336.55 280.491C1336.87 279.781 1337.03 279.024 1337.03 278.219C1337.03 277.3 1336.82 276.514 1336.41 275.861C1335.99 275.198 1335.42 274.687 1334.69 274.327C1333.96 273.967 1333.13 273.787 1332.2 273.787C1331.25 273.787 1330.41 273.986 1329.69 274.384C1328.97 274.772 1328.41 275.326 1328.01 276.045C1327.62 276.765 1327.43 277.622 1327.43 278.616H1322.41C1322.41 276.77 1322.84 275.165 1323.68 273.801C1324.52 272.437 1325.68 271.382 1327.16 270.634C1328.65 269.885 1330.35 269.511 1332.27 269.511C1334.22 269.511 1335.94 269.876 1337.41 270.605C1338.89 271.334 1340.04 272.333 1340.85 273.602C1341.68 274.871 1342.09 276.32 1342.09 277.949C1342.09 279.038 1341.88 280.108 1341.46 281.159C1341.05 282.21 1340.31 283.375 1339.26 284.653C1338.22 285.932 1336.76 287.48 1334.87 289.298L1329.86 294.398V294.597H1342.53V299H1322.59ZM1350.65 299.312C1349.79 299.312 1349.05 299.009 1348.44 298.403C1347.82 297.797 1347.52 297.059 1347.53 296.188C1347.52 295.335 1347.82 294.606 1348.44 294C1349.05 293.394 1349.79 293.091 1350.65 293.091C1351.49 293.091 1352.21 293.394 1352.83 294C1353.45 294.606 1353.77 295.335 1353.78 296.188C1353.77 296.765 1353.62 297.291 1353.32 297.764C1353.04 298.238 1352.66 298.616 1352.19 298.901C1351.72 299.175 1351.21 299.312 1350.65 299.312ZM1368.79 299.398C1366.9 299.398 1365.2 299.043 1363.71 298.332C1362.21 297.613 1361.02 296.628 1360.14 295.378C1359.27 294.128 1358.81 292.698 1358.75 291.088H1363.86C1363.96 292.281 1364.47 293.257 1365.41 294.014C1366.35 294.762 1367.48 295.136 1368.79 295.136C1369.82 295.136 1370.74 294.9 1371.55 294.426C1372.35 293.953 1372.99 293.295 1373.45 292.452C1373.92 291.609 1374.14 290.648 1374.13 289.568C1374.14 288.47 1373.91 287.494 1373.44 286.642C1372.96 285.79 1372.32 285.122 1371.49 284.639C1370.67 284.147 1369.72 283.901 1368.65 283.901C1367.78 283.891 1366.92 284.052 1366.08 284.384C1365.24 284.715 1364.57 285.151 1364.08 285.69L1359.32 284.909L1360.84 269.909H1377.71V274.312H1365.2L1364.36 282.026H1364.53C1365.07 281.391 1365.83 280.866 1366.82 280.449C1367.8 280.023 1368.88 279.81 1370.06 279.81C1371.82 279.81 1373.39 280.226 1374.77 281.06C1376.16 281.884 1377.24 283.02 1378.04 284.469C1378.84 285.918 1379.23 287.575 1379.23 289.44C1379.23 291.363 1378.79 293.077 1377.9 294.582C1377.02 296.079 1375.79 297.258 1374.22 298.119C1372.66 298.972 1370.85 299.398 1368.79 299.398ZM1389.11 295.023L1388.92 296.585C1388.79 297.778 1388.55 298.991 1388.21 300.222C1387.88 301.462 1387.53 302.603 1387.16 303.645C1386.79 304.687 1386.5 305.506 1386.27 306.102H1382.8C1382.93 305.525 1383.11 304.739 1383.34 303.744C1383.58 302.75 1383.81 301.633 1384.02 300.392C1384.24 299.152 1384.39 297.892 1384.46 296.614L1384.56 295.023H1389.11ZM1415.67 269.909V299H1410.4V275.037H1410.23L1403.42 279.384V274.554L1410.65 269.909H1415.67ZM1424.68 299.312C1423.82 299.312 1423.08 299.009 1422.46 298.403C1421.85 297.797 1421.54 297.059 1421.55 296.188C1421.54 295.335 1421.85 294.606 1422.46 294C1423.08 293.394 1423.82 293.091 1424.68 293.091C1425.51 293.091 1426.23 293.394 1426.85 294C1427.48 294.606 1427.79 295.335 1427.8 296.188C1427.79 296.765 1427.64 297.291 1427.35 297.764C1427.06 298.238 1426.68 298.616 1426.21 298.901C1425.75 299.175 1425.24 299.312 1424.68 299.312ZM1442.82 299.398C1440.92 299.398 1439.23 299.043 1437.73 298.332C1436.23 297.613 1435.05 296.628 1434.17 295.378C1433.29 294.128 1432.83 292.698 1432.77 291.088H1437.89C1437.98 292.281 1438.5 293.257 1439.44 294.014C1440.37 294.762 1441.5 295.136 1442.82 295.136C1443.85 295.136 1444.77 294.9 1445.57 294.426C1446.38 293.953 1447.01 293.295 1447.48 292.452C1447.94 291.609 1448.17 290.648 1448.16 289.568C1448.17 288.47 1447.93 287.494 1447.46 286.642C1446.99 285.79 1446.34 285.122 1445.51 284.639C1444.69 284.147 1443.74 283.901 1442.67 283.901C1441.8 283.891 1440.95 284.052 1440.1 284.384C1439.26 284.715 1438.59 285.151 1438.1 285.69L1433.34 284.909L1434.86 269.909H1451.74V274.312H1439.22L1438.38 282.026H1438.55C1439.09 281.391 1439.86 280.866 1440.84 280.449C1441.83 280.023 1442.91 279.81 1444.08 279.81C1445.84 279.81 1447.41 280.226 1448.8 281.06C1450.18 281.884 1451.27 283.02 1452.06 284.469C1452.86 285.918 1453.26 287.575 1453.26 289.44C1453.26 291.363 1452.81 293.077 1451.92 294.582C1451.04 296.079 1449.81 297.258 1448.24 298.119C1446.68 298.972 1444.87 299.398 1442.82 299.398Z" fill="#050505"/>
<rect x="1298" y="251" width="180" height="66" stroke="#050505" stroke-width="3"/>
<circle cx="1298" cy="317" r="20" fill="#FF3998"/>
<rect width="189" height="66" transform="translate(1022 93)" fill="white"/>
<circle opacity="0.25" cx="1022" cy="159" r="70" fill="#628EFF"/>
<rect x="1022" y="93" width="189" height="66" fill="white"/>
<path d="M1057.34 141.554C1055 141.554 1052.99 140.962 1051.32 139.778C1049.65 138.585 1048.37 136.866 1047.47 134.622C1046.58 132.368 1046.13 129.655 1046.13 126.483C1046.14 123.311 1046.59 120.612 1047.48 118.386C1048.38 116.152 1049.66 114.447 1051.33 113.273C1053.01 112.098 1055.01 111.511 1057.34 111.511C1059.67 111.511 1061.67 112.098 1063.35 113.273C1065.02 114.447 1066.31 116.152 1067.2 118.386C1068.1 120.621 1068.55 123.32 1068.55 126.483C1068.55 129.665 1068.1 132.383 1067.2 134.636C1066.31 136.881 1065.02 138.595 1063.35 139.778C1061.68 140.962 1059.68 141.554 1057.34 141.554ZM1057.34 137.108C1059.16 137.108 1060.59 136.213 1061.64 134.423C1062.7 132.624 1063.23 129.977 1063.23 126.483C1063.23 124.172 1062.99 122.231 1062.51 120.659C1062.03 119.087 1061.34 117.903 1060.46 117.108C1059.58 116.303 1058.54 115.901 1057.34 115.901C1055.53 115.901 1054.1 116.8 1053.05 118.599C1052 120.389 1051.47 123.017 1051.46 126.483C1051.45 128.803 1051.68 130.754 1052.15 132.335C1052.64 133.917 1053.32 135.11 1054.2 135.915C1055.08 136.71 1056.13 137.108 1057.34 137.108ZM1075.36 141.312C1074.49 141.312 1073.76 141.009 1073.14 140.403C1072.53 139.797 1072.22 139.059 1072.23 138.188C1072.22 137.335 1072.53 136.606 1073.14 136C1073.76 135.394 1074.49 135.091 1075.36 135.091C1076.19 135.091 1076.91 135.394 1077.53 136C1078.15 136.606 1078.47 137.335 1078.48 138.188C1078.47 138.765 1078.32 139.291 1078.03 139.764C1077.74 140.238 1077.36 140.616 1076.89 140.901C1076.43 141.175 1075.92 141.312 1075.36 141.312ZM1093.5 141.398C1091.6 141.398 1089.91 141.043 1088.41 140.332C1086.91 139.613 1085.73 138.628 1084.85 137.378C1083.97 136.128 1083.51 134.698 1083.45 133.088H1088.57C1088.66 134.281 1089.18 135.257 1090.12 136.014C1091.05 136.762 1092.18 137.136 1093.5 137.136C1094.53 137.136 1095.45 136.9 1096.25 136.426C1097.06 135.953 1097.69 135.295 1098.15 134.452C1098.62 133.609 1098.85 132.648 1098.84 131.568C1098.85 130.47 1098.61 129.494 1098.14 128.642C1097.67 127.79 1097.02 127.122 1096.19 126.639C1095.37 126.147 1094.42 125.901 1093.35 125.901C1092.48 125.891 1091.63 126.052 1090.78 126.384C1089.94 126.715 1089.27 127.151 1088.78 127.69L1084.02 126.909L1085.54 111.909H1102.42V116.312H1089.9L1089.06 124.026H1089.23C1089.77 123.391 1090.54 122.866 1091.52 122.449C1092.51 122.023 1093.59 121.81 1094.76 121.81C1096.52 121.81 1098.09 122.226 1099.48 123.06C1100.86 123.884 1101.95 125.02 1102.74 126.469C1103.54 127.918 1103.94 129.575 1103.94 131.44C1103.94 133.363 1103.49 135.077 1102.6 136.582C1101.72 138.079 1100.49 139.258 1098.92 140.119C1097.36 140.972 1095.55 141.398 1093.5 141.398ZM1113.81 137.023L1113.63 138.585C1113.49 139.778 1113.26 140.991 1112.92 142.222C1112.59 143.462 1112.24 144.603 1111.87 145.645C1111.5 146.687 1111.2 147.506 1110.97 148.102H1107.5C1107.64 147.525 1107.82 146.739 1108.04 145.744C1108.28 144.75 1108.51 143.633 1108.73 142.392C1108.94 141.152 1109.09 139.892 1109.17 138.614L1109.27 137.023H1113.81ZM1139.29 141.554C1136.95 141.554 1134.94 140.962 1133.27 139.778C1131.6 138.585 1130.32 136.866 1129.42 134.622C1128.53 132.368 1128.08 129.655 1128.08 126.483C1128.09 123.311 1128.54 120.612 1129.43 118.386C1130.33 116.152 1131.62 114.447 1133.28 113.273C1134.96 112.098 1136.96 111.511 1139.29 111.511C1141.62 111.511 1143.62 112.098 1145.3 113.273C1146.98 114.447 1148.26 116.152 1149.15 118.386C1150.05 120.621 1150.5 123.32 1150.5 126.483C1150.5 129.665 1150.05 132.383 1149.15 134.636C1148.26 136.881 1146.98 138.595 1145.3 139.778C1143.63 140.962 1141.63 141.554 1139.29 141.554ZM1139.29 137.108C1141.11 137.108 1142.54 136.213 1143.6 134.423C1144.66 132.624 1145.19 129.977 1145.19 126.483C1145.19 124.172 1144.94 122.231 1144.46 120.659C1143.98 119.087 1143.3 117.903 1142.42 117.108C1141.54 116.303 1140.49 115.901 1139.29 115.901C1137.48 115.901 1136.05 116.8 1135 118.599C1133.95 120.389 1133.42 123.017 1133.41 126.483C1133.4 128.803 1133.63 130.754 1134.11 132.335C1134.59 133.917 1135.27 135.11 1136.15 135.915C1137.03 136.71 1138.08 137.108 1139.29 137.108ZM1157.31 141.312C1156.45 141.312 1155.71 141.009 1155.09 140.403C1154.48 139.797 1154.18 139.059 1154.18 138.188C1154.18 137.335 1154.48 136.606 1155.09 136C1155.71 135.394 1156.45 135.091 1157.31 135.091C1158.14 135.091 1158.87 135.394 1159.48 136C1160.11 136.606 1160.43 137.335 1160.43 138.188C1160.43 138.765 1160.27 139.291 1159.98 139.764C1159.7 140.238 1159.32 140.616 1158.84 140.901C1158.38 141.175 1157.87 141.312 1157.31 141.312ZM1175.45 141.398C1173.55 141.398 1171.86 141.043 1170.36 140.332C1168.87 139.613 1167.68 138.628 1166.8 137.378C1165.93 136.128 1165.46 134.698 1165.41 133.088H1170.52C1170.61 134.281 1171.13 135.257 1172.07 136.014C1173.01 136.762 1174.13 137.136 1175.45 137.136C1176.48 137.136 1177.4 136.9 1178.2 136.426C1179.01 135.953 1179.64 135.295 1180.11 134.452C1180.57 133.609 1180.8 132.648 1180.79 131.568C1180.8 130.47 1180.57 129.494 1180.09 128.642C1179.62 127.79 1178.97 127.122 1178.15 126.639C1177.32 126.147 1176.38 125.901 1175.31 125.901C1174.44 125.891 1173.58 126.052 1172.74 126.384C1171.89 126.715 1171.23 127.151 1170.73 127.69L1165.97 126.909L1167.49 111.909H1184.37V116.312H1171.86L1171.02 124.026H1171.19C1171.73 123.391 1172.49 122.866 1173.47 122.449C1174.46 122.023 1175.54 121.81 1176.71 121.81C1178.47 121.81 1180.05 122.226 1181.43 123.06C1182.81 123.884 1183.9 125.02 1184.7 126.469C1185.49 127.918 1185.89 129.575 1185.89 131.44C1185.89 133.363 1185.44 135.077 1184.55 136.582C1183.67 138.079 1182.45 139.258 1180.88 140.119C1179.31 140.972 1177.5 141.398 1175.45 141.398Z" fill="#050505"/>
<rect x="1022" y="93" width="189" height="66" stroke="#050505" stroke-width="3"/>
<circle cx="1022" cy="159" r="20" fill="#628EFF"/>
<rect width="145" height="66" transform="translate(1160 488)" fill="white"/>
<circle opacity="0.25" cx="1160" cy="554" r="70" fill="#FF8947"/>
<rect x="1160" y="488" width="145" height="66" fill="white"/>
<path d="M1196.42 506.909V536H1191.15V512.037H1190.98L1184.17 516.384V511.554L1191.4 506.909H1196.42ZM1205.43 536.312C1204.57 536.312 1203.83 536.009 1203.21 535.403C1202.6 534.797 1202.29 534.059 1202.3 533.188C1202.29 532.335 1202.6 531.606 1203.21 531C1203.83 530.394 1204.57 530.091 1205.43 530.091C1206.26 530.091 1206.98 530.394 1207.6 531C1208.23 531.606 1208.54 532.335 1208.55 533.188C1208.54 533.765 1208.39 534.291 1208.1 534.764C1207.81 535.238 1207.43 535.616 1206.96 535.901C1206.5 536.175 1205.99 536.312 1205.43 536.312ZM1223.57 536.398C1221.67 536.398 1219.98 536.043 1218.48 535.332C1216.98 534.613 1215.8 533.628 1214.92 532.378C1214.04 531.128 1213.58 529.698 1213.52 528.088H1218.64C1218.73 529.281 1219.25 530.257 1220.19 531.014C1221.12 531.762 1222.25 532.136 1223.57 532.136C1224.6 532.136 1225.52 531.9 1226.32 531.426C1227.13 530.953 1227.76 530.295 1228.23 529.452C1228.69 528.609 1228.92 527.648 1228.91 526.568C1228.92 525.47 1228.68 524.494 1228.21 523.642C1227.74 522.79 1227.09 522.122 1226.26 521.639C1225.44 521.147 1224.49 520.901 1223.42 520.901C1222.55 520.891 1221.7 521.052 1220.85 521.384C1220.01 521.715 1219.34 522.151 1218.85 522.69L1214.09 521.909L1215.61 506.909H1232.49V511.312H1219.97L1219.13 519.026H1219.3C1219.84 518.391 1220.61 517.866 1221.59 517.449C1222.58 517.023 1223.66 516.81 1224.83 516.81C1226.59 516.81 1228.16 517.226 1229.55 518.06C1230.93 518.884 1232.02 520.02 1232.81 521.469C1233.61 522.918 1234.01 524.575 1234.01 526.44C1234.01 528.363 1233.56 530.077 1232.67 531.582C1231.79 533.079 1230.56 534.258 1228.99 535.119C1227.43 535.972 1225.62 536.398 1223.57 536.398ZM1243.88 532.023L1243.7 533.585C1243.56 534.778 1243.33 535.991 1242.99 537.222C1242.66 538.462 1242.31 539.603 1241.94 540.645C1241.57 541.687 1241.27 542.506 1241.04 543.102H1237.58C1237.71 542.525 1237.89 541.739 1238.12 540.744C1238.35 539.75 1238.58 538.633 1238.8 537.392C1239.01 536.152 1239.16 534.892 1239.24 533.614L1239.34 532.023H1243.88ZM1269.05 536.398C1267 536.398 1265.19 536.047 1263.59 535.347C1262.01 534.646 1260.76 533.67 1259.84 532.42C1258.93 531.17 1258.44 529.726 1258.38 528.088H1263.72C1263.77 528.874 1264.03 529.561 1264.5 530.148C1264.98 530.725 1265.61 531.175 1266.39 531.497C1267.18 531.819 1268.06 531.98 1269.03 531.98C1270.08 531.98 1271 531.8 1271.8 531.44C1272.61 531.071 1273.24 530.56 1273.69 529.906C1274.15 529.253 1274.37 528.5 1274.36 527.648C1274.37 526.767 1274.14 525.991 1273.68 525.318C1273.22 524.646 1272.54 524.12 1271.66 523.741C1270.79 523.363 1269.74 523.173 1268.51 523.173H1265.94V519.111H1268.51C1269.52 519.111 1270.41 518.936 1271.17 518.585C1271.93 518.235 1272.53 517.742 1272.97 517.108C1273.41 516.464 1273.62 515.721 1273.61 514.878C1273.62 514.054 1273.43 513.339 1273.05 512.733C1272.69 512.117 1272.16 511.639 1271.48 511.298C1270.81 510.957 1270.01 510.787 1269.11 510.787C1268.22 510.787 1267.39 510.948 1266.63 511.27C1265.88 511.592 1265.27 512.051 1264.8 512.648C1264.34 513.235 1264.09 513.936 1264.06 514.75H1258.99C1259.03 513.121 1259.5 511.691 1260.4 510.46C1261.31 509.22 1262.52 508.254 1264.03 507.562C1265.55 506.862 1267.25 506.511 1269.13 506.511C1271.08 506.511 1272.76 506.876 1274.19 507.605C1275.63 508.325 1276.74 509.295 1277.53 510.517C1278.32 511.739 1278.71 513.088 1278.71 514.565C1278.72 516.204 1278.23 517.577 1277.26 518.685C1276.29 519.793 1275.02 520.517 1273.45 520.858V521.085C1275.5 521.369 1277.07 522.127 1278.15 523.358C1279.25 524.58 1279.8 526.099 1279.79 527.918C1279.79 529.546 1279.32 531.005 1278.4 532.293C1277.48 533.571 1276.21 534.575 1274.59 535.304C1272.98 536.033 1271.13 536.398 1269.05 536.398Z" fill="#050505"/>
<rect x="1160" y="488" width="145" height="66" stroke="#050505" stroke-width="3"/>
<circle cx="1160" cy="554" r="20" fill="#FF8947"/>
<rect width="184" height="66" transform="translate(1935 392)" fill="white"/>
<circle opacity="0.25" cx="1935" cy="458" r="145" fill="#25AC19"/>
<rect x="1935" y="392" width="184" height="66" fill="white"/>
<path d="M1971.42 410.909V440H1966.15V416.037H1965.98L1959.17 420.384V415.554L1966.4 410.909H1971.42ZM1983.3 436.023L1983.11 437.585C1982.98 438.778 1982.74 439.991 1982.4 441.222C1982.07 442.462 1981.72 443.603 1981.35 444.645C1980.98 445.687 1980.68 446.506 1980.46 447.102H1976.99C1977.12 446.525 1977.3 445.739 1977.53 444.744C1977.77 443.75 1977.99 442.633 1978.21 441.392C1978.43 440.152 1978.58 438.892 1978.65 437.614L1978.75 436.023H1983.3ZM1998.02 440V436.193L2008.12 426.293C2009.09 425.317 2009.89 424.451 2010.54 423.693C2011.18 422.936 2011.66 422.202 2011.99 421.491C2012.31 420.781 2012.47 420.024 2012.47 419.219C2012.47 418.3 2012.26 417.514 2011.84 416.861C2011.43 416.198 2010.85 415.687 2010.12 415.327C2009.4 414.967 2008.57 414.787 2007.64 414.787C2006.68 414.787 2005.84 414.986 2005.12 415.384C2004.41 415.772 2003.85 416.326 2003.45 417.045C2003.06 417.765 2002.87 418.622 2002.87 419.616H1997.85C1997.85 417.77 1998.27 416.165 1999.12 414.801C1999.96 413.437 2001.12 412.382 2002.6 411.634C2004.08 410.885 2005.79 410.511 2007.71 410.511C2009.66 410.511 2011.38 410.876 2012.85 411.605C2014.33 412.334 2015.48 413.333 2016.29 414.602C2017.11 415.871 2017.53 417.32 2017.53 418.949C2017.53 420.038 2017.32 421.108 2016.9 422.159C2016.48 423.21 2015.75 424.375 2014.7 425.653C2013.66 426.932 2012.19 428.48 2010.31 430.298L2005.3 435.398V435.597H2017.97V440H1998.02ZM2026.09 440.312C2025.23 440.312 2024.49 440.009 2023.88 439.403C2023.26 438.797 2022.96 438.059 2022.97 437.188C2022.96 436.335 2023.26 435.606 2023.88 435C2024.49 434.394 2025.23 434.091 2026.09 434.091C2026.92 434.091 2027.65 434.394 2028.26 435C2028.89 435.606 2029.21 436.335 2029.22 437.188C2029.21 437.765 2029.05 438.291 2028.76 438.764C2028.48 439.238 2028.1 439.616 2027.62 439.901C2027.16 440.175 2026.65 440.312 2026.09 440.312ZM2042.71 410.909V440H2037.44V416.037H2037.27L2030.46 420.384V415.554L2037.69 410.909H2042.71ZM2060.75 440.398C2059.35 440.388 2058 440.147 2056.67 439.673C2055.34 439.19 2054.15 438.409 2053.09 437.33C2052.03 436.241 2051.19 434.796 2050.56 432.997C2049.94 431.188 2049.63 428.949 2049.64 426.278C2049.64 423.788 2049.9 421.567 2050.43 419.616C2050.96 417.666 2051.73 416.018 2052.72 414.673C2053.72 413.319 2054.91 412.287 2056.31 411.577C2057.73 410.866 2059.3 410.511 2061.04 410.511C2062.87 410.511 2064.49 410.871 2065.9 411.591C2067.32 412.311 2068.47 413.295 2069.34 414.545C2070.21 415.786 2070.75 417.188 2070.96 418.75H2065.77C2065.51 417.633 2064.97 416.742 2064.14 416.08C2063.33 415.407 2062.29 415.071 2061.04 415.071C2059.03 415.071 2057.47 415.947 2056.39 417.699C2055.31 419.451 2054.76 421.856 2054.75 424.915H2054.95C2055.42 424.081 2056.02 423.366 2056.75 422.77C2057.49 422.173 2058.33 421.714 2059.25 421.392C2060.19 421.061 2061.18 420.895 2062.22 420.895C2063.93 420.895 2065.46 421.302 2066.81 422.116C2068.18 422.931 2069.25 424.053 2070.05 425.483C2070.85 426.903 2071.24 428.532 2071.23 430.369C2071.24 432.282 2070.8 434.001 2069.92 435.526C2069.04 437.041 2067.82 438.234 2066.24 439.105C2064.67 439.976 2062.84 440.407 2060.75 440.398ZM2060.72 436.136C2061.75 436.136 2062.67 435.885 2063.49 435.384C2064.3 434.882 2064.95 434.205 2065.42 433.352C2065.89 432.5 2066.13 431.544 2066.12 430.483C2066.13 429.441 2065.9 428.499 2065.43 427.656C2064.98 426.813 2064.35 426.146 2063.54 425.653C2062.74 425.161 2061.82 424.915 2060.79 424.915C2060.02 424.915 2059.31 425.062 2058.64 425.355C2057.98 425.649 2057.4 426.056 2056.91 426.577C2056.42 427.088 2056.03 427.685 2055.75 428.366C2055.47 429.039 2055.33 429.759 2055.32 430.526C2055.33 431.539 2055.57 432.472 2056.03 433.324C2056.49 434.176 2057.13 434.858 2057.95 435.369C2058.76 435.881 2059.69 436.136 2060.72 436.136ZM2077.1 440L2089.47 415.511V415.312H2075.11V410.909H2094.92V415.412L2082.56 440H2077.1Z" fill="#050505"/>
<rect x="1935" y="392" width="184" height="66" stroke="#050505" stroke-width="3"/>
<circle cx="1935" cy="458" r="20" fill="#25AC19"/>
<rect width="180" height="66" transform="translate(2251 301)" fill="white"/>
<circle opacity="0.25" cx="2251" cy="367" r="70" fill="#FF3998"/>
<rect x="2251" y="301" width="180" height="66" fill="white"/>
<path d="M2275.59 349V345.193L2285.68 335.293C2286.65 334.317 2287.46 333.451 2288.1 332.693C2288.74 331.936 2289.23 331.202 2289.55 330.491C2289.87 329.781 2290.03 329.024 2290.03 328.219C2290.03 327.3 2289.82 326.514 2289.41 325.861C2288.99 325.198 2288.42 324.687 2287.69 324.327C2286.96 323.967 2286.13 323.787 2285.2 323.787C2284.25 323.787 2283.41 323.986 2282.69 324.384C2281.97 324.772 2281.41 325.326 2281.01 326.045C2280.62 326.765 2280.43 327.622 2280.43 328.616H2275.41C2275.41 326.77 2275.84 325.165 2276.68 323.801C2277.52 322.437 2278.68 321.382 2280.16 320.634C2281.65 319.885 2283.35 319.511 2285.27 319.511C2287.22 319.511 2288.94 319.876 2290.41 320.605C2291.89 321.334 2293.04 322.333 2293.85 323.602C2294.68 324.871 2295.09 326.32 2295.09 327.949C2295.09 329.038 2294.88 330.108 2294.46 331.159C2294.05 332.21 2293.31 333.375 2292.26 334.653C2291.22 335.932 2289.76 337.48 2287.87 339.298L2282.86 344.398V344.597H2295.53V349H2275.59ZM2303.65 349.312C2302.79 349.312 2302.05 349.009 2301.44 348.403C2300.82 347.797 2300.52 347.059 2300.53 346.188C2300.52 345.335 2300.82 344.606 2301.44 344C2302.05 343.394 2302.79 343.091 2303.65 343.091C2304.49 343.091 2305.21 343.394 2305.83 344C2306.45 344.606 2306.77 345.335 2306.78 346.188C2306.77 346.765 2306.62 347.291 2306.32 347.764C2306.04 348.238 2305.66 348.616 2305.19 348.901C2304.72 349.175 2304.21 349.312 2303.65 349.312ZM2321.79 349.398C2319.9 349.398 2318.2 349.043 2316.71 348.332C2315.21 347.613 2314.02 346.628 2313.14 345.378C2312.27 344.128 2311.81 342.698 2311.75 341.088H2316.86C2316.96 342.281 2317.47 343.257 2318.41 344.014C2319.35 344.762 2320.48 345.136 2321.79 345.136C2322.82 345.136 2323.74 344.9 2324.55 344.426C2325.35 343.953 2325.99 343.295 2326.45 342.452C2326.92 341.609 2327.14 340.648 2327.13 339.568C2327.14 338.47 2326.91 337.494 2326.44 336.642C2325.96 335.79 2325.32 335.122 2324.49 334.639C2323.67 334.147 2322.72 333.901 2321.65 333.901C2320.78 333.891 2319.92 334.052 2319.08 334.384C2318.24 334.715 2317.57 335.151 2317.08 335.69L2312.32 334.909L2313.84 319.909H2330.71V324.312H2318.2L2317.36 332.026H2317.53C2318.07 331.391 2318.83 330.866 2319.82 330.449C2320.8 330.023 2321.88 329.81 2323.06 329.81C2324.82 329.81 2326.39 330.226 2327.77 331.06C2329.16 331.884 2330.24 333.02 2331.04 334.469C2331.84 335.918 2332.23 337.575 2332.23 339.44C2332.23 341.363 2331.79 343.077 2330.9 344.582C2330.02 346.079 2328.79 347.258 2327.22 348.119C2325.66 348.972 2323.85 349.398 2321.79 349.398ZM2342.11 345.023L2341.92 346.585C2341.79 347.778 2341.55 348.991 2341.21 350.222C2340.88 351.462 2340.53 352.603 2340.16 353.645C2339.79 354.687 2339.5 355.506 2339.27 356.102H2335.8C2335.93 355.525 2336.11 354.739 2336.34 353.744C2336.58 352.75 2336.81 351.633 2337.02 350.392C2337.24 349.152 2337.39 347.892 2337.46 346.614L2337.56 345.023H2342.11ZM2368.67 319.909V349H2363.4V325.037H2363.23L2356.42 329.384V324.554L2363.65 319.909H2368.67ZM2377.68 349.312C2376.82 349.312 2376.08 349.009 2375.46 348.403C2374.85 347.797 2374.54 347.059 2374.55 346.188C2374.54 345.335 2374.85 344.606 2375.46 344C2376.08 343.394 2376.82 343.091 2377.68 343.091C2378.51 343.091 2379.23 343.394 2379.85 344C2380.48 344.606 2380.79 345.335 2380.8 346.188C2380.79 346.765 2380.64 347.291 2380.35 347.764C2380.06 348.238 2379.68 348.616 2379.21 348.901C2378.75 349.175 2378.24 349.312 2377.68 349.312ZM2395.82 349.398C2393.92 349.398 2392.23 349.043 2390.73 348.332C2389.23 347.613 2388.05 346.628 2387.17 345.378C2386.29 344.128 2385.83 342.698 2385.77 341.088H2390.89C2390.98 342.281 2391.5 343.257 2392.44 344.014C2393.37 344.762 2394.5 345.136 2395.82 345.136C2396.85 345.136 2397.77 344.9 2398.57 344.426C2399.38 343.953 2400.01 343.295 2400.48 342.452C2400.94 341.609 2401.17 340.648 2401.16 339.568C2401.17 338.47 2400.93 337.494 2400.46 336.642C2399.99 335.79 2399.34 335.122 2398.51 334.639C2397.69 334.147 2396.74 333.901 2395.67 333.901C2394.8 333.891 2393.95 334.052 2393.1 334.384C2392.26 334.715 2391.59 335.151 2391.1 335.69L2386.34 334.909L2387.86 319.909H2404.74V324.312H2392.22L2391.38 332.026H2391.55C2392.09 331.391 2392.86 330.866 2393.84 330.449C2394.83 330.023 2395.91 329.81 2397.08 329.81C2398.84 329.81 2400.41 330.226 2401.8 331.06C2403.18 331.884 2404.27 333.02 2405.06 334.469C2405.86 335.918 2406.26 337.575 2406.26 339.44C2406.26 341.363 2405.81 343.077 2404.92 344.582C2404.04 346.079 2402.81 347.258 2401.24 348.119C2399.68 348.972 2397.87 349.398 2395.82 349.398Z" fill="#050505"/>
<rect x="2251" y="301" width="180" height="66" stroke="#050505" stroke-width="3"/>
<circle cx="2251" cy="367" r="20" fill="#FF3998"/>
<rect width="189" height="66" transform="translate(1856 162)" fill="white"/>
<circle opacity="0.25" cx="1856" cy="228" r="70" fill="#628EFF"/>
<rect x="1856" y="162" width="189" height="66" fill="white"/>
<path d="M1891.34 210.554C1889 210.554 1886.99 209.962 1885.32 208.778C1883.65 207.585 1882.37 205.866 1881.47 203.622C1880.58 201.368 1880.13 198.655 1880.13 195.483C1880.14 192.311 1880.59 189.612 1881.48 187.386C1882.38 185.152 1883.66 183.447 1885.33 182.273C1887.01 181.098 1889.01 180.511 1891.34 180.511C1893.67 180.511 1895.67 181.098 1897.35 182.273C1899.02 183.447 1900.31 185.152 1901.2 187.386C1902.1 189.621 1902.55 192.32 1902.55 195.483C1902.55 198.665 1902.1 201.383 1901.2 203.636C1900.31 205.881 1899.02 207.595 1897.35 208.778C1895.68 209.962 1893.68 210.554 1891.34 210.554ZM1891.34 206.108C1893.16 206.108 1894.59 205.213 1895.64 203.423C1896.7 201.624 1897.23 198.977 1897.23 195.483C1897.23 193.172 1896.99 191.231 1896.51 189.659C1896.03 188.087 1895.34 186.903 1894.46 186.108C1893.58 185.303 1892.54 184.901 1891.34 184.901C1889.53 184.901 1888.1 185.8 1887.05 187.599C1886 189.389 1885.47 192.017 1885.46 195.483C1885.45 197.803 1885.68 199.754 1886.15 201.335C1886.64 202.917 1887.32 204.11 1888.2 204.915C1889.08 205.71 1890.13 206.108 1891.34 206.108ZM1909.36 210.312C1908.49 210.312 1907.76 210.009 1907.14 209.403C1906.53 208.797 1906.22 208.059 1906.23 207.188C1906.22 206.335 1906.53 205.606 1907.14 205C1907.76 204.394 1908.49 204.091 1909.36 204.091C1910.19 204.091 1910.91 204.394 1911.53 205C1912.15 205.606 1912.47 206.335 1912.48 207.188C1912.47 207.765 1912.32 208.291 1912.03 208.764C1911.74 209.238 1911.36 209.616 1910.89 209.901C1910.43 210.175 1909.92 210.312 1909.36 210.312ZM1927.5 210.398C1925.6 210.398 1923.91 210.043 1922.41 209.332C1920.91 208.613 1919.73 207.628 1918.85 206.378C1917.97 205.128 1917.51 203.698 1917.45 202.088H1922.57C1922.66 203.281 1923.18 204.257 1924.12 205.014C1925.05 205.762 1926.18 206.136 1927.5 206.136C1928.53 206.136 1929.45 205.9 1930.25 205.426C1931.06 204.953 1931.69 204.295 1932.15 203.452C1932.62 202.609 1932.85 201.648 1932.84 200.568C1932.85 199.47 1932.61 198.494 1932.14 197.642C1931.67 196.79 1931.02 196.122 1930.19 195.639C1929.37 195.147 1928.42 194.901 1927.35 194.901C1926.48 194.891 1925.63 195.052 1924.78 195.384C1923.94 195.715 1923.27 196.151 1922.78 196.69L1918.02 195.909L1919.54 180.909H1936.42V185.312H1923.9L1923.06 193.026H1923.23C1923.77 192.391 1924.54 191.866 1925.52 191.449C1926.51 191.023 1927.59 190.81 1928.76 190.81C1930.52 190.81 1932.09 191.226 1933.48 192.06C1934.86 192.884 1935.95 194.02 1936.74 195.469C1937.54 196.918 1937.94 198.575 1937.94 200.44C1937.94 202.363 1937.49 204.077 1936.6 205.582C1935.72 207.079 1934.49 208.258 1932.92 209.119C1931.36 209.972 1929.55 210.398 1927.5 210.398ZM1947.81 206.023L1947.63 207.585C1947.49 208.778 1947.26 209.991 1946.92 211.222C1946.59 212.462 1946.24 213.603 1945.87 214.645C1945.5 215.687 1945.2 216.506 1944.97 217.102H1941.5C1941.64 216.525 1941.82 215.739 1942.04 214.744C1942.28 213.75 1942.51 212.633 1942.73 211.392C1942.94 210.152 1943.09 208.892 1943.17 207.614L1943.27 206.023H1947.81ZM1973.29 210.554C1970.95 210.554 1968.94 209.962 1967.27 208.778C1965.6 207.585 1964.32 205.866 1963.42 203.622C1962.53 201.368 1962.08 198.655 1962.08 195.483C1962.09 192.311 1962.54 189.612 1963.43 187.386C1964.33 185.152 1965.62 183.447 1967.28 182.273C1968.96 181.098 1970.96 180.511 1973.29 180.511C1975.62 180.511 1977.62 181.098 1979.3 182.273C1980.98 183.447 1982.26 185.152 1983.15 187.386C1984.05 189.621 1984.5 192.32 1984.5 195.483C1984.5 198.665 1984.05 201.383 1983.15 203.636C1982.26 205.881 1980.98 207.595 1979.3 208.778C1977.63 209.962 1975.63 210.554 1973.29 210.554ZM1973.29 206.108C1975.11 206.108 1976.54 205.213 1977.6 203.423C1978.66 201.624 1979.19 198.977 1979.19 195.483C1979.19 193.172 1978.94 191.231 1978.46 189.659C1977.98 188.087 1977.3 186.903 1976.42 186.108C1975.54 185.303 1974.49 184.901 1973.29 184.901C1971.48 184.901 1970.05 185.8 1969 187.599C1967.95 189.389 1967.42 192.017 1967.41 195.483C1967.4 197.803 1967.63 199.754 1968.11 201.335C1968.59 202.917 1969.27 204.11 1970.15 204.915C1971.03 205.71 1972.08 206.108 1973.29 206.108ZM1991.31 210.312C1990.45 210.312 1989.71 210.009 1989.09 209.403C1988.48 208.797 1988.18 208.059 1988.18 207.188C1988.18 206.335 1988.48 205.606 1989.09 205C1989.71 204.394 1990.45 204.091 1991.31 204.091C1992.14 204.091 1992.87 204.394 1993.48 205C1994.11 205.606 1994.43 206.335 1994.43 207.188C1994.43 207.765 1994.27 208.291 1993.98 208.764C1993.7 209.238 1993.32 209.616 1992.84 209.901C1992.38 210.175 1991.87 210.312 1991.31 210.312ZM2009.45 210.398C2007.55 210.398 2005.86 210.043 2004.36 209.332C2002.87 208.613 2001.68 207.628 2000.8 206.378C1999.93 205.128 1999.46 203.698 1999.41 202.088H2004.52C2004.61 203.281 2005.13 204.257 2006.07 205.014C2007.01 205.762 2008.13 206.136 2009.45 206.136C2010.48 206.136 2011.4 205.9 2012.2 205.426C2013.01 204.953 2013.64 204.295 2014.11 203.452C2014.57 202.609 2014.8 201.648 2014.79 200.568C2014.8 199.47 2014.57 198.494 2014.09 197.642C2013.62 196.79 2012.97 196.122 2012.15 195.639C2011.32 195.147 2010.38 194.901 2009.31 194.901C2008.44 194.891 2007.58 195.052 2006.74 195.384C2005.89 195.715 2005.23 196.151 2004.73 196.69L1999.97 195.909L2001.49 180.909H2018.37V185.312H2005.86L2005.02 193.026H2005.19C2005.73 192.391 2006.49 191.866 2007.47 191.449C2008.46 191.023 2009.54 190.81 2010.71 190.81C2012.47 190.81 2014.05 191.226 2015.43 192.06C2016.81 192.884 2017.9 194.02 2018.7 195.469C2019.49 196.918 2019.89 198.575 2019.89 200.44C2019.89 202.363 2019.44 204.077 2018.55 205.582C2017.67 207.079 2016.45 208.258 2014.88 209.119C2013.31 209.972 2011.5 210.398 2009.45 210.398Z" fill="#050505"/>
<rect x="1856" y="162" width="189" height="66" stroke="#050505" stroke-width="3"/>
<circle cx="1856" cy="228" r="20" fill="#628EFF"/>
<rect width="180" height="66" transform="translate(2093 577)" fill="white"/>
<circle opacity="0.25" cx="2093" cy="643" r="70" fill="#FF8947"/>
<rect x="2093" y="577" width="180" height="66" fill="white"/>
<path d="M2129.42 595.909V625H2124.15V601.037H2123.98L2117.17 605.384V600.554L2124.4 595.909H2129.42ZM2138.43 625.312C2137.57 625.312 2136.83 625.009 2136.21 624.403C2135.6 623.797 2135.29 623.059 2135.3 622.188C2135.29 621.335 2135.6 620.606 2136.21 620C2136.83 619.394 2137.57 619.091 2138.43 619.091C2139.26 619.091 2139.98 619.394 2140.6 620C2141.23 620.606 2141.54 621.335 2141.55 622.188C2141.54 622.765 2141.39 623.291 2141.1 623.764C2140.81 624.238 2140.43 624.616 2139.96 624.901C2139.5 625.175 2138.99 625.312 2138.43 625.312ZM2156.57 625.398C2154.67 625.398 2152.98 625.043 2151.48 624.332C2149.98 623.613 2148.8 622.628 2147.92 621.378C2147.04 620.128 2146.58 618.698 2146.52 617.088H2151.64C2151.73 618.281 2152.25 619.257 2153.19 620.014C2154.12 620.762 2155.25 621.136 2156.57 621.136C2157.6 621.136 2158.52 620.9 2159.32 620.426C2160.13 619.953 2160.76 619.295 2161.23 618.452C2161.69 617.609 2161.92 616.648 2161.91 615.568C2161.92 614.47 2161.68 613.494 2161.21 612.642C2160.74 611.79 2160.09 611.122 2159.26 610.639C2158.44 610.147 2157.49 609.901 2156.42 609.901C2155.55 609.891 2154.7 610.052 2153.85 610.384C2153.01 610.715 2152.34 611.151 2151.85 611.69L2147.09 610.909L2148.61 595.909H2165.49V600.312H2152.97L2152.13 608.026H2152.3C2152.84 607.391 2153.61 606.866 2154.59 606.449C2155.58 606.023 2156.66 605.81 2157.83 605.81C2159.59 605.81 2161.16 606.226 2162.55 607.06C2163.93 607.884 2165.02 609.02 2165.81 610.469C2166.61 611.918 2167.01 613.575 2167.01 615.44C2167.01 617.363 2166.56 619.077 2165.67 620.582C2164.79 622.079 2163.56 623.258 2161.99 624.119C2160.43 624.972 2158.62 625.398 2156.57 625.398ZM2176.88 621.023L2176.7 622.585C2176.56 623.778 2176.33 624.991 2175.99 626.222C2175.66 627.462 2175.31 628.603 2174.94 629.645C2174.57 630.687 2174.27 631.506 2174.04 632.102H2170.58C2170.71 631.525 2170.89 630.739 2171.12 629.744C2171.35 628.75 2171.58 627.633 2171.8 626.392C2172.01 625.152 2172.16 623.892 2172.24 622.614L2172.34 621.023H2176.88ZM2202.05 625.398C2200 625.398 2198.19 625.047 2196.59 624.347C2195.01 623.646 2193.76 622.67 2192.84 621.42C2191.93 620.17 2191.44 618.726 2191.38 617.088H2196.72C2196.77 617.874 2197.03 618.561 2197.5 619.148C2197.98 619.725 2198.61 620.175 2199.39 620.497C2200.18 620.819 2201.06 620.98 2202.03 620.98C2203.08 620.98 2204 620.8 2204.8 620.44C2205.61 620.071 2206.24 619.56 2206.69 618.906C2207.15 618.253 2207.37 617.5 2207.36 616.648C2207.37 615.767 2207.14 614.991 2206.68 614.318C2206.22 613.646 2205.54 613.12 2204.66 612.741C2203.79 612.363 2202.74 612.173 2201.51 612.173H2198.94V608.111H2201.51C2202.52 608.111 2203.41 607.936 2204.17 607.585C2204.93 607.235 2205.53 606.742 2205.97 606.108C2206.41 605.464 2206.62 604.721 2206.61 603.878C2206.62 603.054 2206.43 602.339 2206.05 601.733C2205.69 601.117 2205.16 600.639 2204.48 600.298C2203.81 599.957 2203.01 599.787 2202.11 599.787C2201.22 599.787 2200.39 599.948 2199.63 600.27C2198.88 600.592 2198.27 601.051 2197.8 601.648C2197.34 602.235 2197.09 602.936 2197.06 603.75H2191.99C2192.03 602.121 2192.5 600.691 2193.4 599.46C2194.31 598.22 2195.52 597.254 2197.03 596.562C2198.55 595.862 2200.25 595.511 2202.13 595.511C2204.08 595.511 2205.76 595.876 2207.19 596.605C2208.63 597.325 2209.74 598.295 2210.53 599.517C2211.32 600.739 2211.71 602.088 2211.71 603.565C2211.72 605.204 2211.23 606.577 2210.26 607.685C2209.29 608.793 2208.02 609.517 2206.45 609.858V610.085C2208.5 610.369 2210.07 611.127 2211.15 612.358C2212.25 613.58 2212.8 615.099 2212.79 616.918C2212.79 618.546 2212.32 620.005 2211.4 621.293C2210.48 622.571 2209.21 623.575 2207.59 624.304C2205.98 625.033 2204.13 625.398 2202.05 625.398ZM2220.03 625.312C2219.17 625.312 2218.43 625.009 2217.81 624.403C2217.2 623.797 2216.89 623.059 2216.9 622.188C2216.89 621.335 2217.2 620.606 2217.81 620C2218.43 619.394 2219.17 619.091 2220.03 619.091C2220.86 619.091 2221.59 619.394 2222.2 620C2222.83 620.606 2223.14 621.335 2223.15 622.188C2223.14 622.765 2222.99 623.291 2222.7 623.764C2222.41 624.238 2222.04 624.616 2221.56 624.901C2221.1 625.175 2220.59 625.312 2220.03 625.312ZM2238.17 625.398C2236.27 625.398 2234.58 625.043 2233.08 624.332C2231.59 623.613 2230.4 622.628 2229.52 621.378C2228.65 620.128 2228.18 618.698 2228.12 617.088H2233.24C2233.33 618.281 2233.85 619.257 2234.79 620.014C2235.72 620.762 2236.85 621.136 2238.17 621.136C2239.2 621.136 2240.12 620.9 2240.92 620.426C2241.73 619.953 2242.36 619.295 2242.83 618.452C2243.29 617.609 2243.52 616.648 2243.51 615.568C2243.52 614.47 2243.29 613.494 2242.81 612.642C2242.34 611.79 2241.69 611.122 2240.87 610.639C2240.04 610.147 2239.1 609.901 2238.03 609.901C2237.15 609.891 2236.3 610.052 2235.45 610.384C2234.61 610.715 2233.94 611.151 2233.45 611.69L2228.69 610.909L2230.21 595.909H2247.09V600.312H2234.57L2233.74 608.026H2233.91C2234.45 607.391 2235.21 606.866 2236.19 606.449C2237.18 606.023 2238.26 605.81 2239.43 605.81C2241.19 605.81 2242.77 606.226 2244.15 607.06C2245.53 607.884 2246.62 609.02 2247.41 610.469C2248.21 611.918 2248.61 613.575 2248.61 615.44C2248.61 617.363 2248.16 619.077 2247.27 620.582C2246.39 622.079 2245.17 623.258 2243.59 624.119C2242.03 624.972 2240.22 625.398 2238.17 625.398Z" fill="#050505"/>
<rect x="2093" y="577" width="180" height="66" stroke="#050505" stroke-width="3"/>
<circle cx="2093" cy="643" r="20" fill="#FF8947"/>
</svg>
