<svg width="2458" height="871" viewBox="0 0 2458 871" fill="none" xmlns="http://www.w3.org/2000/svg">
<rect x="80" y="135.5" width="150" height="150" fill="white"/>
<rect x="80" y="135.5" width="150" height="150" stroke="#050505" stroke-width="8" stroke-linejoin="round"/>
<rect x="80" y="285.5" width="150" height="150" fill="white"/>
<rect x="80" y="285.5" width="150" height="150" stroke="#050505" stroke-width="8" stroke-linejoin="round"/>
<rect x="80" y="435.5" width="150" height="150" fill="white"/>
<rect x="80" y="435.5" width="150" height="150" stroke="#050505" stroke-width="8" stroke-linejoin="round"/>
<rect x="80" y="585.5" width="150" height="150" fill="white"/>
<rect x="80" y="585.5" width="150" height="150" stroke="#050505" stroke-width="8" stroke-linejoin="round"/>
<rect x="230" y="135.5" width="150" height="150" fill="white"/>
<rect x="230" y="135.5" width="150" height="150" stroke="#050505" stroke-width="8" stroke-linejoin="round"/>
<rect x="230" y="285.5" width="150" height="150" fill="white"/>
<rect x="230" y="285.5" width="150" height="150" stroke="#050505" stroke-width="8" stroke-linejoin="round"/>
<rect x="230" y="435.5" width="150" height="150" fill="white"/>
<rect x="230" y="435.5" width="150" height="150" stroke="#050505" stroke-width="8" stroke-linejoin="round"/>
<rect x="230" y="585.5" width="150" height="150" fill="white"/>
<rect x="230" y="585.5" width="150" height="150" stroke="#050505" stroke-width="8" stroke-linejoin="round"/>
<rect x="380" y="135.5" width="150" height="150" fill="white"/>
<rect x="380" y="135.5" width="150" height="150" stroke="#050505" stroke-width="8" stroke-linejoin="round"/>
<rect x="380" y="285.5" width="150" height="150" fill="white"/>
<rect x="380" y="285.5" width="150" height="150" stroke="#050505" stroke-width="8" stroke-linejoin="round"/>
<rect x="380" y="435.5" width="150" height="150" fill="white"/>
<rect x="380" y="435.5" width="150" height="150" stroke="#050505" stroke-width="8" stroke-linejoin="round"/>
<rect x="380" y="585.5" width="150" height="150" fill="white"/>
<rect x="380" y="585.5" width="150" height="150" stroke="#050505" stroke-width="8" stroke-linejoin="round"/>
<rect x="530" y="135.5" width="150" height="150" fill="white"/>
<rect x="530" y="135.5" width="150" height="150" stroke="#050505" stroke-width="8" stroke-linejoin="round"/>
<rect x="530" y="285.5" width="150" height="150" fill="white"/>
<rect x="530" y="285.5" width="150" height="150" stroke="#050505" stroke-width="8" stroke-linejoin="round"/>
<rect x="530" y="435.5" width="150" height="150" fill="white"/>
<rect x="530" y="435.5" width="150" height="150" stroke="#050505" stroke-width="8" stroke-linejoin="round"/>
<rect x="530" y="585.5" width="150" height="150" fill="white"/>
<rect x="530" y="585.5" width="150" height="150" stroke="#050505" stroke-width="8" stroke-linejoin="round"/>
<path d="M875 158.5L920.75 79.2587L1012.25 79.2587L1058 158.5L1012.25 237.741L920.75 237.741L875 158.5Z" fill="white" stroke="#050505" stroke-width="8" stroke-linejoin="round"/>
<path d="M875 316.5L920.75 237.259L1012.25 237.259L1058 316.5L1012.25 395.741H920.75L875 316.5Z" fill="white" stroke="#050505" stroke-width="8" stroke-linejoin="round"/>
<path d="M875 474.5L920.75 395.259H1012.25L1058 474.5L1012.25 553.741H920.75L875 474.5Z" fill="white" stroke="#050505" stroke-width="8" stroke-linejoin="round"/>
<path d="M875 632.5L920.75 553.259H1012.25L1058 632.5L1012.25 711.741H920.75L875 632.5Z" fill="white" stroke="#050505" stroke-width="8" stroke-linejoin="round"/>
<path d="M1013 237.5L1058.75 158.259L1150.25 158.259L1196 237.5L1150.25 316.741H1058.75L1013 237.5Z" fill="white" stroke="#050505" stroke-width="8" stroke-linejoin="round"/>
<path d="M1013 395.5L1058.75 316.259H1150.25L1196 395.5L1150.25 474.741H1058.75L1013 395.5Z" fill="white" stroke="#050505" stroke-width="8" stroke-linejoin="round"/>
<path d="M1013 553.5L1058.75 474.259H1150.25L1196 553.5L1150.25 632.741H1058.75L1013 553.5Z" fill="white" stroke="#050505" stroke-width="8" stroke-linejoin="round"/>
<path d="M1013 711.5L1058.75 632.259H1150.25L1196 711.5L1150.25 790.741H1058.75L1013 711.5Z" fill="white" stroke="#050505" stroke-width="8" stroke-linejoin="round"/>
<path d="M1151 158.5L1196.75 79.2587L1288.25 79.2587L1334 158.5L1288.25 237.741L1196.75 237.741L1151 158.5Z" fill="white" stroke="#050505" stroke-width="8" stroke-linejoin="round"/>
<path d="M1151 316.5L1196.75 237.259L1288.25 237.259L1334 316.5L1288.25 395.741H1196.75L1151 316.5Z" fill="white" stroke="#050505" stroke-width="8" stroke-linejoin="round"/>
<path d="M1151 474.5L1196.75 395.259H1288.25L1334 474.5L1288.25 553.741H1196.75L1151 474.5Z" fill="white" stroke="#050505" stroke-width="8" stroke-linejoin="round"/>
<path d="M1151 632.5L1196.75 553.259H1288.25L1334 632.5L1288.25 711.741H1196.75L1151 632.5Z" fill="white" stroke="#050505" stroke-width="8" stroke-linejoin="round"/>
<path d="M1289 237.5L1334.75 158.259L1426.25 158.259L1472 237.5L1426.25 316.741H1334.75L1289 237.5Z" fill="white" stroke="#050505" stroke-width="8" stroke-linejoin="round"/>
<path d="M1289 395.5L1334.75 316.259H1426.25L1472 395.5L1426.25 474.741H1334.75L1289 395.5Z" fill="white" stroke="#050505" stroke-width="8" stroke-linejoin="round"/>
<path d="M1289 553.5L1334.75 474.259H1426.25L1472 553.5L1426.25 632.741H1334.75L1289 553.5Z" fill="white" stroke="#050505" stroke-width="8" stroke-linejoin="round"/>
<path d="M1289 711.5L1334.75 632.259H1426.25L1472 711.5L1426.25 790.741H1334.75L1289 711.5Z" fill="white" stroke="#050505" stroke-width="8" stroke-linejoin="round"/>
<path d="M2220.5 137L2299.74 182.75V274.25L2220.5 320L2141.26 274.25V182.75L2220.5 137Z" fill="white" stroke="#050505" stroke-width="8" stroke-linejoin="round"/>
<path d="M2062.5 137L2141.74 182.75V274.25L2062.5 320L1983.26 274.25V182.75L2062.5 137Z" fill="white" stroke="#050505" stroke-width="8" stroke-linejoin="round"/>
<path d="M1904.5 137L1983.74 182.75V274.25L1904.5 320L1825.26 274.25V182.75L1904.5 137Z" fill="white" stroke="#050505" stroke-width="8" stroke-linejoin="round"/>
<path d="M1746.5 137L1825.74 182.75V274.25L1746.5 320L1667.26 274.25V182.75L1746.5 137Z" fill="white" stroke="#050505" stroke-width="8" stroke-linejoin="round"/>
<path d="M2299.5 275L2378.74 320.75V412.25L2299.5 458L2220.26 412.25V320.75L2299.5 275Z" fill="white" stroke="#050505" stroke-width="8" stroke-linejoin="round"/>
<path d="M2141.5 275L2220.74 320.75V412.25L2141.5 458L2062.26 412.25V320.75L2141.5 275Z" fill="white" stroke="#050505" stroke-width="8" stroke-linejoin="round"/>
<path d="M1983.5 275L2062.74 320.75V412.25L1983.5 458L1904.26 412.25V320.75L1983.5 275Z" fill="white" stroke="#050505" stroke-width="8" stroke-linejoin="round"/>
<path d="M1825.5 275L1904.74 320.75V412.25L1825.5 458L1746.26 412.25V320.75L1825.5 275Z" fill="white" stroke="#050505" stroke-width="8" stroke-linejoin="round"/>
<path d="M2220.5 413L2299.74 458.75V550.25L2220.5 596L2141.26 550.25V458.75L2220.5 413Z" fill="white" stroke="#050505" stroke-width="8" stroke-linejoin="round"/>
<path d="M2062.5 413L2141.74 458.75V550.25L2062.5 596L1983.26 550.25V458.75L2062.5 413Z" fill="white" stroke="#050505" stroke-width="8" stroke-linejoin="round"/>
<path d="M1904.5 413L1983.74 458.75V550.25L1904.5 596L1825.26 550.25V458.75L1904.5 413Z" fill="white" stroke="#050505" stroke-width="8" stroke-linejoin="round"/>
<path d="M1746.5 413L1825.74 458.75V550.25L1746.5 596L1667.26 550.25V458.75L1746.5 413Z" fill="white" stroke="#050505" stroke-width="8" stroke-linejoin="round"/>
<path d="M2299.5 551L2378.74 596.75V688.25L2299.5 734L2220.26 688.25V596.75L2299.5 551Z" fill="white" stroke="#050505" stroke-width="8" stroke-linejoin="round"/>
<path d="M2141.5 551L2220.74 596.75V688.25L2141.5 734L2062.26 688.25V596.75L2141.5 551Z" fill="white" stroke="#050505" stroke-width="8" stroke-linejoin="round"/>
<path d="M1983.5 551L2062.74 596.75V688.25L1983.5 734L1904.26 688.25V596.75L1983.5 551Z" fill="white" stroke="#050505" stroke-width="8" stroke-linejoin="round"/>
<path d="M1825.5 551L1904.74 596.75V688.25L1825.5 734L1746.26 688.25V596.75L1825.5 551Z" fill="white" stroke="#050505" stroke-width="8" stroke-linejoin="round"/>
<rect x="156.5" y="145.5" width="186" height="63" fill="white"/>
<path d="M190.338 192.554C187.999 192.554 185.991 191.962 184.315 190.778C182.649 189.585 181.366 187.866 180.466 185.622C179.576 183.368 179.131 180.655 179.131 177.483C179.14 174.311 179.59 171.612 180.48 169.386C181.38 167.152 182.663 165.447 184.33 164.273C186.006 163.098 188.009 162.511 190.338 162.511C192.668 162.511 194.67 163.098 196.347 164.273C198.023 165.447 199.306 167.152 200.196 169.386C201.096 171.621 201.545 174.32 201.545 177.483C201.545 180.665 201.096 183.383 200.196 185.636C199.306 187.881 198.023 189.595 196.347 190.778C194.68 191.962 192.677 192.554 190.338 192.554ZM190.338 188.108C192.156 188.108 193.591 187.213 194.642 185.423C195.703 183.624 196.233 180.977 196.233 177.483C196.233 175.172 195.991 173.231 195.509 171.659C195.026 170.087 194.344 168.903 193.463 168.108C192.582 167.303 191.541 166.901 190.338 166.901C188.529 166.901 187.099 167.8 186.048 169.599C184.997 171.389 184.467 174.017 184.457 177.483C184.448 179.803 184.68 181.754 185.153 183.335C185.636 184.917 186.318 186.11 187.199 186.915C188.08 187.71 189.126 188.108 190.338 188.108ZM208.357 192.312C207.495 192.312 206.756 192.009 206.141 191.403C205.525 190.797 205.222 190.059 205.232 189.188C205.222 188.335 205.525 187.606 206.141 187C206.756 186.394 207.495 186.091 208.357 186.091C209.19 186.091 209.914 186.394 210.53 187C211.155 187.606 211.472 188.335 211.482 189.188C211.472 189.765 211.321 190.291 211.027 190.764C210.743 191.238 210.364 191.616 209.891 191.901C209.427 192.175 208.915 192.312 208.357 192.312ZM226.496 192.398C224.602 192.398 222.907 192.043 221.411 191.332C219.914 190.613 218.726 189.628 217.845 188.378C216.974 187.128 216.51 185.698 216.453 184.088H221.567C221.661 185.281 222.178 186.257 223.115 187.014C224.053 187.762 225.179 188.136 226.496 188.136C227.528 188.136 228.446 187.9 229.251 187.426C230.056 186.953 230.691 186.295 231.155 185.452C231.619 184.609 231.846 183.648 231.837 182.568C231.846 181.47 231.614 180.494 231.141 179.642C230.667 178.79 230.018 178.122 229.195 177.639C228.371 177.147 227.424 176.901 226.354 176.901C225.482 176.891 224.625 177.052 223.783 177.384C222.94 177.715 222.272 178.151 221.78 178.69L217.021 177.909L218.541 162.909H235.416V167.312H222.902L222.064 175.026H222.234C222.774 174.391 223.536 173.866 224.521 173.449C225.506 173.023 226.586 172.81 227.76 172.81C229.521 172.81 231.093 173.226 232.476 174.06C233.858 174.884 234.947 176.02 235.743 177.469C236.538 178.918 236.936 180.575 236.936 182.44C236.936 184.363 236.491 186.077 235.601 187.582C234.72 189.079 233.494 190.258 231.922 191.119C230.359 191.972 228.551 192.398 226.496 192.398ZM246.812 188.023L246.627 189.585C246.495 190.778 246.258 191.991 245.917 193.222C245.585 194.462 245.235 195.603 244.866 196.645C244.496 197.687 244.198 198.506 243.971 199.102H240.505C240.638 198.525 240.817 197.739 241.045 196.744C241.281 195.75 241.509 194.633 241.727 193.392C241.944 192.152 242.091 190.892 242.167 189.614L242.266 188.023H246.812ZM272.291 192.554C269.952 192.554 267.945 191.962 266.268 190.778C264.602 189.585 263.319 187.866 262.419 185.622C261.529 183.368 261.084 180.655 261.084 177.483C261.093 174.311 261.543 171.612 262.433 169.386C263.333 167.152 264.616 165.447 266.283 164.273C267.959 163.098 269.962 162.511 272.291 162.511C274.621 162.511 276.624 163.098 278.3 164.273C279.976 165.447 281.259 167.152 282.149 169.386C283.049 171.621 283.499 174.32 283.499 177.483C283.499 180.665 283.049 183.383 282.149 185.636C281.259 187.881 279.976 189.595 278.3 190.778C276.633 191.962 274.63 192.554 272.291 192.554ZM272.291 188.108C274.109 188.108 275.544 187.213 276.595 185.423C277.656 183.624 278.186 180.977 278.186 177.483C278.186 175.172 277.945 173.231 277.462 171.659C276.979 170.087 276.297 168.903 275.416 168.108C274.536 167.303 273.494 166.901 272.291 166.901C270.482 166.901 269.053 167.8 268.001 169.599C266.95 171.389 266.42 174.017 266.411 177.483C266.401 179.803 266.633 181.754 267.107 183.335C267.589 184.917 268.271 186.11 269.152 186.915C270.033 187.71 271.079 188.108 272.291 188.108ZM290.31 192.312C289.448 192.312 288.709 192.009 288.094 191.403C287.478 190.797 287.175 190.059 287.185 189.188C287.175 188.335 287.478 187.606 288.094 187C288.709 186.394 289.448 186.091 290.31 186.091C291.143 186.091 291.867 186.394 292.483 187C293.108 187.606 293.425 188.335 293.435 189.188C293.425 189.765 293.274 190.291 292.98 190.764C292.696 191.238 292.317 191.616 291.844 191.901C291.38 192.175 290.868 192.312 290.31 192.312ZM308.449 192.398C306.555 192.398 304.86 192.043 303.364 191.332C301.867 190.613 300.679 189.628 299.798 188.378C298.927 187.128 298.463 185.698 298.406 184.088H303.52C303.615 185.281 304.131 186.257 305.068 187.014C306.006 187.762 307.133 188.136 308.449 188.136C309.481 188.136 310.4 187.9 311.205 187.426C312.009 186.953 312.644 186.295 313.108 185.452C313.572 184.609 313.799 183.648 313.79 182.568C313.799 181.47 313.567 180.494 313.094 179.642C312.62 178.79 311.972 178.122 311.148 177.639C310.324 177.147 309.377 176.901 308.307 176.901C307.436 176.891 306.579 177.052 305.736 177.384C304.893 177.715 304.225 178.151 303.733 178.69L298.974 177.909L300.494 162.909H317.369V167.312H304.855L304.017 175.026H304.188C304.727 174.391 305.49 173.866 306.474 173.449C307.459 173.023 308.539 172.81 309.713 172.81C311.474 172.81 313.046 173.226 314.429 174.06C315.812 174.884 316.901 176.02 317.696 177.469C318.491 178.918 318.889 180.575 318.889 182.44C318.889 184.363 318.444 186.077 317.554 187.582C316.673 189.079 315.447 190.258 313.875 191.119C312.312 191.972 310.504 192.398 308.449 192.398Z" fill="#050505"/>
<circle cx="155" cy="210" r="22" fill="#628EFF"/>
<rect x="156.5" y="145.5" width="186" height="63" stroke="black" stroke-width="3"/>
<rect x="231.5" y="370.5" width="105" height="63" fill="white"/>
<path d="M266.418 387.909V417H261.148V393.037H260.977L254.173 397.384V392.554L261.403 387.909H266.418ZM278.296 413.023L278.112 414.585C277.979 415.778 277.742 416.991 277.401 418.222C277.07 419.462 276.719 420.603 276.35 421.645C275.981 422.687 275.683 423.506 275.455 424.102H271.989C272.122 423.525 272.302 422.739 272.529 421.744C272.766 420.75 272.993 419.633 273.211 418.392C273.429 417.152 273.576 415.892 273.651 414.614L273.751 413.023H278.296ZM293.023 417V413.193L303.122 403.293C304.088 402.317 304.893 401.451 305.537 400.693C306.181 399.936 306.664 399.202 306.986 398.491C307.308 397.781 307.469 397.024 307.469 396.219C307.469 395.3 307.26 394.514 306.844 393.861C306.427 393.198 305.854 392.687 305.125 392.327C304.396 391.967 303.567 391.787 302.639 391.787C301.683 391.787 300.845 391.986 300.125 392.384C299.405 392.772 298.847 393.326 298.449 394.045C298.061 394.765 297.866 395.622 297.866 396.616H292.852C292.852 394.77 293.274 393.165 294.116 391.801C294.959 390.437 296.119 389.382 297.597 388.634C299.083 387.885 300.788 387.511 302.71 387.511C304.661 387.511 306.375 387.876 307.852 388.605C309.33 389.334 310.475 390.333 311.29 391.602C312.114 392.871 312.526 394.32 312.526 395.949C312.526 397.038 312.317 398.108 311.901 399.159C311.484 400.21 310.75 401.375 309.699 402.653C308.657 403.932 307.194 405.48 305.31 407.298L300.295 412.398V412.597H312.966V417H293.023Z" fill="#050505"/>
<circle cx="230" cy="435" r="22" fill="#25AC19"/>
<rect x="231.5" y="370.5" width="105" height="63" stroke="black" stroke-width="3"/>
<rect x="1014.5" y="331.5" width="105" height="63" fill="white"/>
<path d="M1049.42 348.909V378H1044.15V354.037H1043.98L1037.17 358.384V353.554L1044.4 348.909H1049.42ZM1061.3 374.023L1061.11 375.585C1060.98 376.778 1060.74 377.991 1060.4 379.222C1060.07 380.462 1059.72 381.603 1059.35 382.645C1058.98 383.687 1058.68 384.506 1058.46 385.102H1054.99C1055.12 384.525 1055.3 383.739 1055.53 382.744C1055.77 381.75 1055.99 380.633 1056.21 379.392C1056.43 378.152 1056.58 376.892 1056.65 375.614L1056.75 374.023H1061.3ZM1076.02 378V374.193L1086.12 364.293C1087.09 363.317 1087.89 362.451 1088.54 361.693C1089.18 360.936 1089.66 360.202 1089.99 359.491C1090.31 358.781 1090.47 358.024 1090.47 357.219C1090.47 356.3 1090.26 355.514 1089.84 354.861C1089.43 354.198 1088.85 353.687 1088.12 353.327C1087.4 352.967 1086.57 352.787 1085.64 352.787C1084.68 352.787 1083.84 352.986 1083.12 353.384C1082.41 353.772 1081.85 354.326 1081.45 355.045C1081.06 355.765 1080.87 356.622 1080.87 357.616H1075.85C1075.85 355.77 1076.27 354.165 1077.12 352.801C1077.96 351.437 1079.12 350.382 1080.6 349.634C1082.08 348.885 1083.79 348.511 1085.71 348.511C1087.66 348.511 1089.38 348.876 1090.85 349.605C1092.33 350.334 1093.48 351.333 1094.29 352.602C1095.11 353.871 1095.53 355.32 1095.53 356.949C1095.53 358.038 1095.32 359.108 1094.9 360.159C1094.48 361.21 1093.75 362.375 1092.7 363.653C1091.66 364.932 1090.19 366.48 1088.31 368.298L1083.3 373.398V373.597H1095.97V378H1076.02Z" fill="#050505"/>
<circle cx="1013" cy="396" r="22" fill="#25AC19"/>
<rect x="1014.5" y="331.5" width="105" height="63" stroke="black" stroke-width="3"/>
<rect x="1826.5" y="393.5" width="105" height="63" fill="white"/>
<path d="M1861.42 410.909V440H1856.15V416.037H1855.98L1849.17 420.384V415.554L1856.4 410.909H1861.42ZM1873.3 436.023L1873.11 437.585C1872.98 438.778 1872.74 439.991 1872.4 441.222C1872.07 442.462 1871.72 443.603 1871.35 444.645C1870.98 445.687 1870.68 446.506 1870.46 447.102H1866.99C1867.12 446.525 1867.3 445.739 1867.53 444.744C1867.77 443.75 1867.99 442.633 1868.21 441.392C1868.43 440.152 1868.58 438.892 1868.65 437.614L1868.75 436.023H1873.3ZM1888.02 440V436.193L1898.12 426.293C1899.09 425.317 1899.89 424.451 1900.54 423.693C1901.18 422.936 1901.66 422.202 1901.99 421.491C1902.31 420.781 1902.47 420.024 1902.47 419.219C1902.47 418.3 1902.26 417.514 1901.84 416.861C1901.43 416.198 1900.85 415.687 1900.12 415.327C1899.4 414.967 1898.57 414.787 1897.64 414.787C1896.68 414.787 1895.84 414.986 1895.12 415.384C1894.41 415.772 1893.85 416.326 1893.45 417.045C1893.06 417.765 1892.87 418.622 1892.87 419.616H1887.85C1887.85 417.77 1888.27 416.165 1889.12 414.801C1889.96 413.437 1891.12 412.382 1892.6 411.634C1894.08 410.885 1895.79 410.511 1897.71 410.511C1899.66 410.511 1901.38 410.876 1902.85 411.605C1904.33 412.334 1905.48 413.333 1906.29 414.602C1907.11 415.871 1907.53 417.32 1907.53 418.949C1907.53 420.038 1907.32 421.108 1906.9 422.159C1906.48 423.21 1905.75 424.375 1904.7 425.653C1903.66 426.932 1902.19 428.48 1900.31 430.298L1895.3 435.398V435.597H1907.97V440H1888.02Z" fill="#050505"/>
<circle cx="1825" cy="458" r="22" fill="#25AC19"/>
<rect x="1826.5" y="393.5" width="105" height="63" stroke="black" stroke-width="3"/>
<rect x="456.5" y="295.5" width="177" height="63" fill="white"/>
<path d="M479.585 342V338.193L489.685 328.293C490.651 327.317 491.455 326.451 492.099 325.693C492.743 324.936 493.226 324.202 493.548 323.491C493.87 322.781 494.031 322.024 494.031 321.219C494.031 320.3 493.823 319.514 493.406 318.861C492.99 318.198 492.417 317.687 491.688 317.327C490.958 316.967 490.13 316.787 489.202 316.787C488.245 316.787 487.407 316.986 486.688 317.384C485.968 317.772 485.409 318.326 485.011 319.045C484.623 319.765 484.429 320.622 484.429 321.616H479.415C479.415 319.77 479.836 318.165 480.679 316.801C481.522 315.437 482.682 314.382 484.159 313.634C485.646 312.885 487.35 312.511 489.273 312.511C491.223 312.511 492.938 312.876 494.415 313.605C495.892 314.334 497.038 315.333 497.852 316.602C498.676 317.871 499.088 319.32 499.088 320.949C499.088 322.038 498.88 323.108 498.463 324.159C498.046 325.21 497.313 326.375 496.261 327.653C495.22 328.932 493.757 330.48 491.872 332.298L486.858 337.398V337.597H499.528V342H479.585ZM507.653 342.312C506.792 342.312 506.053 342.009 505.438 341.403C504.822 340.797 504.519 340.059 504.528 339.188C504.519 338.335 504.822 337.606 505.438 337C506.053 336.394 506.792 336.091 507.653 336.091C508.487 336.091 509.211 336.394 509.827 337C510.452 337.606 510.769 338.335 510.778 339.188C510.769 339.765 510.617 340.291 510.324 340.764C510.04 341.238 509.661 341.616 509.188 341.901C508.723 342.175 508.212 342.312 507.653 342.312ZM525.793 342.398C523.899 342.398 522.204 342.043 520.707 341.332C519.211 340.613 518.023 339.628 517.142 338.378C516.271 337.128 515.807 335.698 515.75 334.088H520.864C520.958 335.281 521.474 336.257 522.412 337.014C523.349 337.762 524.476 338.136 525.793 338.136C526.825 338.136 527.743 337.9 528.548 337.426C529.353 336.953 529.988 336.295 530.452 335.452C530.916 334.609 531.143 333.648 531.134 332.568C531.143 331.47 530.911 330.494 530.438 329.642C529.964 328.79 529.315 328.122 528.491 327.639C527.668 327.147 526.721 326.901 525.651 326.901C524.779 326.891 523.922 327.052 523.08 327.384C522.237 327.715 521.569 328.151 521.077 328.69L516.318 327.909L517.838 312.909H534.713V317.312H522.199L521.361 325.026H521.531C522.071 324.391 522.833 323.866 523.818 323.449C524.803 323.023 525.883 322.81 527.057 322.81C528.818 322.81 530.39 323.226 531.773 324.06C533.155 324.884 534.244 326.02 535.04 327.469C535.835 328.918 536.233 330.575 536.233 332.44C536.233 334.363 535.788 336.077 534.898 337.582C534.017 339.079 532.791 340.258 531.219 341.119C529.656 341.972 527.848 342.398 525.793 342.398ZM546.109 338.023L545.924 339.585C545.791 340.778 545.555 341.991 545.214 343.222C544.882 344.462 544.532 345.603 544.163 346.645C543.793 347.687 543.495 348.506 543.268 349.102H539.802C539.934 348.525 540.114 347.739 540.342 346.744C540.578 345.75 540.806 344.633 541.023 343.392C541.241 342.152 541.388 340.892 541.464 339.614L541.563 338.023H546.109ZM572.668 312.909V342H567.398V318.037H567.227L560.423 322.384V317.554L567.653 312.909H572.668ZM581.677 342.312C580.815 342.312 580.076 342.009 579.461 341.403C578.845 340.797 578.542 340.059 578.552 339.188C578.542 338.335 578.845 337.606 579.461 337C580.076 336.394 580.815 336.091 581.677 336.091C582.51 336.091 583.235 336.394 583.85 337C584.475 337.606 584.792 338.335 584.802 339.188C584.792 339.765 584.641 340.291 584.347 340.764C584.063 341.238 583.684 341.616 583.211 341.901C582.747 342.175 582.236 342.312 581.677 342.312ZM599.816 342.398C597.922 342.398 596.227 342.043 594.731 341.332C593.235 340.613 592.046 339.628 591.165 338.378C590.294 337.128 589.83 335.698 589.773 334.088H594.887C594.982 335.281 595.498 336.257 596.435 337.014C597.373 337.762 598.5 338.136 599.816 338.136C600.848 338.136 601.767 337.9 602.572 337.426C603.377 336.953 604.011 336.295 604.475 335.452C604.939 334.609 605.166 333.648 605.157 332.568C605.166 331.47 604.934 330.494 604.461 329.642C603.987 328.79 603.339 328.122 602.515 327.639C601.691 327.147 600.744 326.901 599.674 326.901C598.803 326.891 597.946 327.052 597.103 327.384C596.26 327.715 595.593 328.151 595.1 328.69L590.342 327.909L591.862 312.909H608.737V317.312H596.222L595.384 325.026H595.555C596.094 324.391 596.857 323.866 597.842 323.449C598.826 323.023 599.906 322.81 601.08 322.81C602.842 322.81 604.414 323.226 605.796 324.06C607.179 324.884 608.268 326.02 609.063 327.469C609.859 328.918 610.256 330.575 610.256 332.44C610.256 334.363 609.811 336.077 608.921 337.582C608.04 339.079 606.814 340.258 605.242 341.119C603.68 341.972 601.871 342.398 599.816 342.398Z" fill="#050505"/>
<circle cx="455" cy="360" r="22" fill="#FF3998"/>
<rect x="456.5" y="295.5" width="177" height="63" stroke="black" stroke-width="3"/>
<rect x="1244.5" y="252.5" width="177" height="63" fill="white"/>
<path d="M1267.59 299V295.193L1277.68 285.293C1278.65 284.317 1279.46 283.451 1280.1 282.693C1280.74 281.936 1281.23 281.202 1281.55 280.491C1281.87 279.781 1282.03 279.024 1282.03 278.219C1282.03 277.3 1281.82 276.514 1281.41 275.861C1280.99 275.198 1280.42 274.687 1279.69 274.327C1278.96 273.967 1278.13 273.787 1277.2 273.787C1276.25 273.787 1275.41 273.986 1274.69 274.384C1273.97 274.772 1273.41 275.326 1273.01 276.045C1272.62 276.765 1272.43 277.622 1272.43 278.616H1267.41C1267.41 276.77 1267.84 275.165 1268.68 273.801C1269.52 272.437 1270.68 271.382 1272.16 270.634C1273.65 269.885 1275.35 269.511 1277.27 269.511C1279.22 269.511 1280.94 269.876 1282.41 270.605C1283.89 271.334 1285.04 272.333 1285.85 273.602C1286.68 274.871 1287.09 276.32 1287.09 277.949C1287.09 279.038 1286.88 280.108 1286.46 281.159C1286.05 282.21 1285.31 283.375 1284.26 284.653C1283.22 285.932 1281.76 287.48 1279.87 289.298L1274.86 294.398V294.597H1287.53V299H1267.59ZM1295.65 299.312C1294.79 299.312 1294.05 299.009 1293.44 298.403C1292.82 297.797 1292.52 297.059 1292.53 296.188C1292.52 295.335 1292.82 294.606 1293.44 294C1294.05 293.394 1294.79 293.091 1295.65 293.091C1296.49 293.091 1297.21 293.394 1297.83 294C1298.45 294.606 1298.77 295.335 1298.78 296.188C1298.77 296.765 1298.62 297.291 1298.32 297.764C1298.04 298.238 1297.66 298.616 1297.19 298.901C1296.72 299.175 1296.21 299.312 1295.65 299.312ZM1313.79 299.398C1311.9 299.398 1310.2 299.043 1308.71 298.332C1307.21 297.613 1306.02 296.628 1305.14 295.378C1304.27 294.128 1303.81 292.698 1303.75 291.088H1308.86C1308.96 292.281 1309.47 293.257 1310.41 294.014C1311.35 294.762 1312.48 295.136 1313.79 295.136C1314.82 295.136 1315.74 294.9 1316.55 294.426C1317.35 293.953 1317.99 293.295 1318.45 292.452C1318.92 291.609 1319.14 290.648 1319.13 289.568C1319.14 288.47 1318.91 287.494 1318.44 286.642C1317.96 285.79 1317.32 285.122 1316.49 284.639C1315.67 284.147 1314.72 283.901 1313.65 283.901C1312.78 283.891 1311.92 284.052 1311.08 284.384C1310.24 284.715 1309.57 285.151 1309.08 285.69L1304.32 284.909L1305.84 269.909H1322.71V274.312H1310.2L1309.36 282.026H1309.53C1310.07 281.391 1310.83 280.866 1311.82 280.449C1312.8 280.023 1313.88 279.81 1315.06 279.81C1316.82 279.81 1318.39 280.226 1319.77 281.06C1321.16 281.884 1322.24 283.02 1323.04 284.469C1323.84 285.918 1324.23 287.575 1324.23 289.44C1324.23 291.363 1323.79 293.077 1322.9 294.582C1322.02 296.079 1320.79 297.258 1319.22 298.119C1317.66 298.972 1315.85 299.398 1313.79 299.398ZM1334.11 295.023L1333.92 296.585C1333.79 297.778 1333.55 298.991 1333.21 300.222C1332.88 301.462 1332.53 302.603 1332.16 303.645C1331.79 304.687 1331.5 305.506 1331.27 306.102H1327.8C1327.93 305.525 1328.11 304.739 1328.34 303.744C1328.58 302.75 1328.81 301.633 1329.02 300.392C1329.24 299.152 1329.39 297.892 1329.46 296.614L1329.56 295.023H1334.11ZM1360.67 269.909V299H1355.4V275.037H1355.23L1348.42 279.384V274.554L1355.65 269.909H1360.67ZM1369.68 299.312C1368.82 299.312 1368.08 299.009 1367.46 298.403C1366.85 297.797 1366.54 297.059 1366.55 296.188C1366.54 295.335 1366.85 294.606 1367.46 294C1368.08 293.394 1368.82 293.091 1369.68 293.091C1370.51 293.091 1371.23 293.394 1371.85 294C1372.48 294.606 1372.79 295.335 1372.8 296.188C1372.79 296.765 1372.64 297.291 1372.35 297.764C1372.06 298.238 1371.68 298.616 1371.21 298.901C1370.75 299.175 1370.24 299.312 1369.68 299.312ZM1387.82 299.398C1385.92 299.398 1384.23 299.043 1382.73 298.332C1381.23 297.613 1380.05 296.628 1379.17 295.378C1378.29 294.128 1377.83 292.698 1377.77 291.088H1382.89C1382.98 292.281 1383.5 293.257 1384.44 294.014C1385.37 294.762 1386.5 295.136 1387.82 295.136C1388.85 295.136 1389.77 294.9 1390.57 294.426C1391.38 293.953 1392.01 293.295 1392.48 292.452C1392.94 291.609 1393.17 290.648 1393.16 289.568C1393.17 288.47 1392.93 287.494 1392.46 286.642C1391.99 285.79 1391.34 285.122 1390.51 284.639C1389.69 284.147 1388.74 283.901 1387.67 283.901C1386.8 283.891 1385.95 284.052 1385.1 284.384C1384.26 284.715 1383.59 285.151 1383.1 285.69L1378.34 284.909L1379.86 269.909H1396.74V274.312H1384.22L1383.38 282.026H1383.55C1384.09 281.391 1384.86 280.866 1385.84 280.449C1386.83 280.023 1387.91 279.81 1389.08 279.81C1390.84 279.81 1392.41 280.226 1393.8 281.06C1395.18 281.884 1396.27 283.02 1397.06 284.469C1397.86 285.918 1398.26 287.575 1398.26 289.44C1398.26 291.363 1397.81 293.077 1396.92 294.582C1396.04 296.079 1394.81 297.258 1393.24 298.119C1391.68 298.972 1389.87 299.398 1387.82 299.398Z" fill="#050505"/>
<circle cx="1243" cy="317" r="22" fill="#FF3998"/>
<rect x="1244.5" y="252.5" width="177" height="63" stroke="black" stroke-width="3"/>
<rect x="2142.5" y="302.5" width="177" height="63" fill="white"/>
<path d="M2165.59 349V345.193L2175.68 335.293C2176.65 334.317 2177.46 333.451 2178.1 332.693C2178.74 331.936 2179.23 331.202 2179.55 330.491C2179.87 329.781 2180.03 329.024 2180.03 328.219C2180.03 327.3 2179.82 326.514 2179.41 325.861C2178.99 325.198 2178.42 324.687 2177.69 324.327C2176.96 323.967 2176.13 323.787 2175.2 323.787C2174.25 323.787 2173.41 323.986 2172.69 324.384C2171.97 324.772 2171.41 325.326 2171.01 326.045C2170.62 326.765 2170.43 327.622 2170.43 328.616H2165.41C2165.41 326.77 2165.84 325.165 2166.68 323.801C2167.52 322.437 2168.68 321.382 2170.16 320.634C2171.65 319.885 2173.35 319.511 2175.27 319.511C2177.22 319.511 2178.94 319.876 2180.41 320.605C2181.89 321.334 2183.04 322.333 2183.85 323.602C2184.68 324.871 2185.09 326.32 2185.09 327.949C2185.09 329.038 2184.88 330.108 2184.46 331.159C2184.05 332.21 2183.31 333.375 2182.26 334.653C2181.22 335.932 2179.76 337.48 2177.87 339.298L2172.86 344.398V344.597H2185.53V349H2165.59ZM2193.65 349.312C2192.79 349.312 2192.05 349.009 2191.44 348.403C2190.82 347.797 2190.52 347.059 2190.53 346.188C2190.52 345.335 2190.82 344.606 2191.44 344C2192.05 343.394 2192.79 343.091 2193.65 343.091C2194.49 343.091 2195.21 343.394 2195.83 344C2196.45 344.606 2196.77 345.335 2196.78 346.188C2196.77 346.765 2196.62 347.291 2196.32 347.764C2196.04 348.238 2195.66 348.616 2195.19 348.901C2194.72 349.175 2194.21 349.312 2193.65 349.312ZM2211.79 349.398C2209.9 349.398 2208.2 349.043 2206.71 348.332C2205.21 347.613 2204.02 346.628 2203.14 345.378C2202.27 344.128 2201.81 342.698 2201.75 341.088H2206.86C2206.96 342.281 2207.47 343.257 2208.41 344.014C2209.35 344.762 2210.48 345.136 2211.79 345.136C2212.82 345.136 2213.74 344.9 2214.55 344.426C2215.35 343.953 2215.99 343.295 2216.45 342.452C2216.92 341.609 2217.14 340.648 2217.13 339.568C2217.14 338.47 2216.91 337.494 2216.44 336.642C2215.96 335.79 2215.32 335.122 2214.49 334.639C2213.67 334.147 2212.72 333.901 2211.65 333.901C2210.78 333.891 2209.92 334.052 2209.08 334.384C2208.24 334.715 2207.57 335.151 2207.08 335.69L2202.32 334.909L2203.84 319.909H2220.71V324.312H2208.2L2207.36 332.026H2207.53C2208.07 331.391 2208.83 330.866 2209.82 330.449C2210.8 330.023 2211.88 329.81 2213.06 329.81C2214.82 329.81 2216.39 330.226 2217.77 331.06C2219.16 331.884 2220.24 333.02 2221.04 334.469C2221.84 335.918 2222.23 337.575 2222.23 339.44C2222.23 341.363 2221.79 343.077 2220.9 344.582C2220.02 346.079 2218.79 347.258 2217.22 348.119C2215.66 348.972 2213.85 349.398 2211.79 349.398ZM2232.11 345.023L2231.92 346.585C2231.79 347.778 2231.55 348.991 2231.21 350.222C2230.88 351.462 2230.53 352.603 2230.16 353.645C2229.79 354.687 2229.5 355.506 2229.27 356.102H2225.8C2225.93 355.525 2226.11 354.739 2226.34 353.744C2226.58 352.75 2226.81 351.633 2227.02 350.392C2227.24 349.152 2227.39 347.892 2227.46 346.614L2227.56 345.023H2232.11ZM2258.67 319.909V349H2253.4V325.037H2253.23L2246.42 329.384V324.554L2253.65 319.909H2258.67ZM2267.68 349.312C2266.82 349.312 2266.08 349.009 2265.46 348.403C2264.85 347.797 2264.54 347.059 2264.55 346.188C2264.54 345.335 2264.85 344.606 2265.46 344C2266.08 343.394 2266.82 343.091 2267.68 343.091C2268.51 343.091 2269.23 343.394 2269.85 344C2270.48 344.606 2270.79 345.335 2270.8 346.188C2270.79 346.765 2270.64 347.291 2270.35 347.764C2270.06 348.238 2269.68 348.616 2269.21 348.901C2268.75 349.175 2268.24 349.312 2267.68 349.312ZM2285.82 349.398C2283.92 349.398 2282.23 349.043 2280.73 348.332C2279.23 347.613 2278.05 346.628 2277.17 345.378C2276.29 344.128 2275.83 342.698 2275.77 341.088H2280.89C2280.98 342.281 2281.5 343.257 2282.44 344.014C2283.37 344.762 2284.5 345.136 2285.82 345.136C2286.85 345.136 2287.77 344.9 2288.57 344.426C2289.38 343.953 2290.01 343.295 2290.48 342.452C2290.94 341.609 2291.17 340.648 2291.16 339.568C2291.17 338.47 2290.93 337.494 2290.46 336.642C2289.99 335.79 2289.34 335.122 2288.51 334.639C2287.69 334.147 2286.74 333.901 2285.67 333.901C2284.8 333.891 2283.95 334.052 2283.1 334.384C2282.26 334.715 2281.59 335.151 2281.1 335.69L2276.34 334.909L2277.86 319.909H2294.74V324.312H2282.22L2281.38 332.026H2281.55C2282.09 331.391 2282.86 330.866 2283.84 330.449C2284.83 330.023 2285.91 329.81 2287.08 329.81C2288.84 329.81 2290.41 330.226 2291.8 331.06C2293.18 331.884 2294.27 333.02 2295.06 334.469C2295.86 335.918 2296.26 337.575 2296.26 339.44C2296.26 341.363 2295.81 343.077 2294.92 344.582C2294.04 346.079 2292.81 347.258 2291.24 348.119C2289.68 348.972 2287.87 349.398 2285.82 349.398Z" fill="#050505"/>
<circle cx="2141" cy="367" r="22" fill="#FF3998"/>
<rect x="2142.5" y="302.5" width="177" height="63" stroke="black" stroke-width="3"/>
<rect x="968.5" y="94.5" width="186" height="63" fill="white"/>
<path d="M1002.34 141.554C999.999 141.554 997.991 140.962 996.315 139.778C994.649 138.585 993.366 136.866 992.466 134.622C991.576 132.368 991.131 129.655 991.131 126.483C991.14 123.311 991.59 120.612 992.48 118.386C993.38 116.152 994.663 114.447 996.33 113.273C998.006 112.098 1000.01 111.511 1002.34 111.511C1004.67 111.511 1006.67 112.098 1008.35 113.273C1010.02 114.447 1011.31 116.152 1012.2 118.386C1013.1 120.621 1013.55 123.32 1013.55 126.483C1013.55 129.665 1013.1 132.383 1012.2 134.636C1011.31 136.881 1010.02 138.595 1008.35 139.778C1006.68 140.962 1004.68 141.554 1002.34 141.554ZM1002.34 137.108C1004.16 137.108 1005.59 136.213 1006.64 134.423C1007.7 132.624 1008.23 129.977 1008.23 126.483C1008.23 124.172 1007.99 122.231 1007.51 120.659C1007.03 119.087 1006.34 117.903 1005.46 117.108C1004.58 116.303 1003.54 115.901 1002.34 115.901C1000.53 115.901 999.099 116.8 998.048 118.599C996.997 120.389 996.467 123.017 996.457 126.483C996.448 128.803 996.68 130.754 997.153 132.335C997.636 133.917 998.318 135.11 999.199 135.915C1000.08 136.71 1001.13 137.108 1002.34 137.108ZM1020.36 141.312C1019.49 141.312 1018.76 141.009 1018.14 140.403C1017.53 139.797 1017.22 139.059 1017.23 138.188C1017.22 137.335 1017.53 136.606 1018.14 136C1018.76 135.394 1019.49 135.091 1020.36 135.091C1021.19 135.091 1021.91 135.394 1022.53 136C1023.15 136.606 1023.47 137.335 1023.48 138.188C1023.47 138.765 1023.32 139.291 1023.03 139.764C1022.74 140.238 1022.36 140.616 1021.89 140.901C1021.43 141.175 1020.92 141.312 1020.36 141.312ZM1038.5 141.398C1036.6 141.398 1034.91 141.043 1033.41 140.332C1031.91 139.613 1030.73 138.628 1029.85 137.378C1028.97 136.128 1028.51 134.698 1028.45 133.088H1033.57C1033.66 134.281 1034.18 135.257 1035.12 136.014C1036.05 136.762 1037.18 137.136 1038.5 137.136C1039.53 137.136 1040.45 136.9 1041.25 136.426C1042.06 135.953 1042.69 135.295 1043.15 134.452C1043.62 133.609 1043.85 132.648 1043.84 131.568C1043.85 130.47 1043.61 129.494 1043.14 128.642C1042.67 127.79 1042.02 127.122 1041.19 126.639C1040.37 126.147 1039.42 125.901 1038.35 125.901C1037.48 125.891 1036.63 126.052 1035.78 126.384C1034.94 126.715 1034.27 127.151 1033.78 127.69L1029.02 126.909L1030.54 111.909H1047.42V116.312H1034.9L1034.06 124.026H1034.23C1034.77 123.391 1035.54 122.866 1036.52 122.449C1037.51 122.023 1038.59 121.81 1039.76 121.81C1041.52 121.81 1043.09 122.226 1044.48 123.06C1045.86 123.884 1046.95 125.02 1047.74 126.469C1048.54 127.918 1048.94 129.575 1048.94 131.44C1048.94 133.363 1048.49 135.077 1047.6 136.582C1046.72 138.079 1045.49 139.258 1043.92 140.119C1042.36 140.972 1040.55 141.398 1038.5 141.398ZM1058.81 137.023L1058.63 138.585C1058.49 139.778 1058.26 140.991 1057.92 142.222C1057.59 143.462 1057.24 144.603 1056.87 145.645C1056.5 146.687 1056.2 147.506 1055.97 148.102H1052.5C1052.64 147.525 1052.82 146.739 1053.04 145.744C1053.28 144.75 1053.51 143.633 1053.73 142.392C1053.94 141.152 1054.09 139.892 1054.17 138.614L1054.27 137.023H1058.81ZM1084.29 141.554C1081.95 141.554 1079.94 140.962 1078.27 139.778C1076.6 138.585 1075.32 136.866 1074.42 134.622C1073.53 132.368 1073.08 129.655 1073.08 126.483C1073.09 123.311 1073.54 120.612 1074.43 118.386C1075.33 116.152 1076.62 114.447 1078.28 113.273C1079.96 112.098 1081.96 111.511 1084.29 111.511C1086.62 111.511 1088.62 112.098 1090.3 113.273C1091.98 114.447 1093.26 116.152 1094.15 118.386C1095.05 120.621 1095.5 123.32 1095.5 126.483C1095.5 129.665 1095.05 132.383 1094.15 134.636C1093.26 136.881 1091.98 138.595 1090.3 139.778C1088.63 140.962 1086.63 141.554 1084.29 141.554ZM1084.29 137.108C1086.11 137.108 1087.54 136.213 1088.6 134.423C1089.66 132.624 1090.19 129.977 1090.19 126.483C1090.19 124.172 1089.94 122.231 1089.46 120.659C1088.98 119.087 1088.3 117.903 1087.42 117.108C1086.54 116.303 1085.49 115.901 1084.29 115.901C1082.48 115.901 1081.05 116.8 1080 118.599C1078.95 120.389 1078.42 123.017 1078.41 126.483C1078.4 128.803 1078.63 130.754 1079.11 132.335C1079.59 133.917 1080.27 135.11 1081.15 135.915C1082.03 136.71 1083.08 137.108 1084.29 137.108ZM1102.31 141.312C1101.45 141.312 1100.71 141.009 1100.09 140.403C1099.48 139.797 1099.18 139.059 1099.18 138.188C1099.18 137.335 1099.48 136.606 1100.09 136C1100.71 135.394 1101.45 135.091 1102.31 135.091C1103.14 135.091 1103.87 135.394 1104.48 136C1105.11 136.606 1105.43 137.335 1105.43 138.188C1105.43 138.765 1105.27 139.291 1104.98 139.764C1104.7 140.238 1104.32 140.616 1103.84 140.901C1103.38 141.175 1102.87 141.312 1102.31 141.312ZM1120.45 141.398C1118.55 141.398 1116.86 141.043 1115.36 140.332C1113.87 139.613 1112.68 138.628 1111.8 137.378C1110.93 136.128 1110.46 134.698 1110.41 133.088H1115.52C1115.61 134.281 1116.13 135.257 1117.07 136.014C1118.01 136.762 1119.13 137.136 1120.45 137.136C1121.48 137.136 1122.4 136.9 1123.2 136.426C1124.01 135.953 1124.64 135.295 1125.11 134.452C1125.57 133.609 1125.8 132.648 1125.79 131.568C1125.8 130.47 1125.57 129.494 1125.09 128.642C1124.62 127.79 1123.97 127.122 1123.15 126.639C1122.32 126.147 1121.38 125.901 1120.31 125.901C1119.44 125.891 1118.58 126.052 1117.74 126.384C1116.89 126.715 1116.23 127.151 1115.73 127.69L1110.97 126.909L1112.49 111.909H1129.37V116.312H1116.86L1116.02 124.026H1116.19C1116.73 123.391 1117.49 122.866 1118.47 122.449C1119.46 122.023 1120.54 121.81 1121.71 121.81C1123.47 121.81 1125.05 122.226 1126.43 123.06C1127.81 123.884 1128.9 125.02 1129.7 126.469C1130.49 127.918 1130.89 129.575 1130.89 131.44C1130.89 133.363 1130.44 135.077 1129.55 136.582C1128.67 138.079 1127.45 139.258 1125.88 140.119C1124.31 140.972 1122.5 141.398 1120.45 141.398Z" fill="#050505"/>
<circle cx="967" cy="159" r="22" fill="#628EFF"/>
<rect x="968.5" y="94.5" width="186" height="63" stroke="black" stroke-width="3"/>
<rect x="1747.5" y="163.5" width="186" height="63" fill="white"/>
<path d="M1781.34 210.554C1779 210.554 1776.99 209.962 1775.32 208.778C1773.65 207.585 1772.37 205.866 1771.47 203.622C1770.58 201.368 1770.13 198.655 1770.13 195.483C1770.14 192.311 1770.59 189.612 1771.48 187.386C1772.38 185.152 1773.66 183.447 1775.33 182.273C1777.01 181.098 1779.01 180.511 1781.34 180.511C1783.67 180.511 1785.67 181.098 1787.35 182.273C1789.02 183.447 1790.31 185.152 1791.2 187.386C1792.1 189.621 1792.55 192.32 1792.55 195.483C1792.55 198.665 1792.1 201.383 1791.2 203.636C1790.31 205.881 1789.02 207.595 1787.35 208.778C1785.68 209.962 1783.68 210.554 1781.34 210.554ZM1781.34 206.108C1783.16 206.108 1784.59 205.213 1785.64 203.423C1786.7 201.624 1787.23 198.977 1787.23 195.483C1787.23 193.172 1786.99 191.231 1786.51 189.659C1786.03 188.087 1785.34 186.903 1784.46 186.108C1783.58 185.303 1782.54 184.901 1781.34 184.901C1779.53 184.901 1778.1 185.8 1777.05 187.599C1776 189.389 1775.47 192.017 1775.46 195.483C1775.45 197.803 1775.68 199.754 1776.15 201.335C1776.64 202.917 1777.32 204.11 1778.2 204.915C1779.08 205.71 1780.13 206.108 1781.34 206.108ZM1799.36 210.312C1798.49 210.312 1797.76 210.009 1797.14 209.403C1796.53 208.797 1796.22 208.059 1796.23 207.188C1796.22 206.335 1796.53 205.606 1797.14 205C1797.76 204.394 1798.49 204.091 1799.36 204.091C1800.19 204.091 1800.91 204.394 1801.53 205C1802.15 205.606 1802.47 206.335 1802.48 207.188C1802.47 207.765 1802.32 208.291 1802.03 208.764C1801.74 209.238 1801.36 209.616 1800.89 209.901C1800.43 210.175 1799.92 210.312 1799.36 210.312ZM1817.5 210.398C1815.6 210.398 1813.91 210.043 1812.41 209.332C1810.91 208.613 1809.73 207.628 1808.85 206.378C1807.97 205.128 1807.51 203.698 1807.45 202.088H1812.57C1812.66 203.281 1813.18 204.257 1814.12 205.014C1815.05 205.762 1816.18 206.136 1817.5 206.136C1818.53 206.136 1819.45 205.9 1820.25 205.426C1821.06 204.953 1821.69 204.295 1822.15 203.452C1822.62 202.609 1822.85 201.648 1822.84 200.568C1822.85 199.47 1822.61 198.494 1822.14 197.642C1821.67 196.79 1821.02 196.122 1820.19 195.639C1819.37 195.147 1818.42 194.901 1817.35 194.901C1816.48 194.891 1815.63 195.052 1814.78 195.384C1813.94 195.715 1813.27 196.151 1812.78 196.69L1808.02 195.909L1809.54 180.909H1826.42V185.312H1813.9L1813.06 193.026H1813.23C1813.77 192.391 1814.54 191.866 1815.52 191.449C1816.51 191.023 1817.59 190.81 1818.76 190.81C1820.52 190.81 1822.09 191.226 1823.48 192.06C1824.86 192.884 1825.95 194.02 1826.74 195.469C1827.54 196.918 1827.94 198.575 1827.94 200.44C1827.94 202.363 1827.49 204.077 1826.6 205.582C1825.72 207.079 1824.49 208.258 1822.92 209.119C1821.36 209.972 1819.55 210.398 1817.5 210.398ZM1837.81 206.023L1837.63 207.585C1837.49 208.778 1837.26 209.991 1836.92 211.222C1836.59 212.462 1836.24 213.603 1835.87 214.645C1835.5 215.687 1835.2 216.506 1834.97 217.102H1831.5C1831.64 216.525 1831.82 215.739 1832.04 214.744C1832.28 213.75 1832.51 212.633 1832.73 211.392C1832.94 210.152 1833.09 208.892 1833.17 207.614L1833.27 206.023H1837.81ZM1863.29 210.554C1860.95 210.554 1858.94 209.962 1857.27 208.778C1855.6 207.585 1854.32 205.866 1853.42 203.622C1852.53 201.368 1852.08 198.655 1852.08 195.483C1852.09 192.311 1852.54 189.612 1853.43 187.386C1854.33 185.152 1855.62 183.447 1857.28 182.273C1858.96 181.098 1860.96 180.511 1863.29 180.511C1865.62 180.511 1867.62 181.098 1869.3 182.273C1870.98 183.447 1872.26 185.152 1873.15 187.386C1874.05 189.621 1874.5 192.32 1874.5 195.483C1874.5 198.665 1874.05 201.383 1873.15 203.636C1872.26 205.881 1870.98 207.595 1869.3 208.778C1867.63 209.962 1865.63 210.554 1863.29 210.554ZM1863.29 206.108C1865.11 206.108 1866.54 205.213 1867.6 203.423C1868.66 201.624 1869.19 198.977 1869.19 195.483C1869.19 193.172 1868.94 191.231 1868.46 189.659C1867.98 188.087 1867.3 186.903 1866.42 186.108C1865.54 185.303 1864.49 184.901 1863.29 184.901C1861.48 184.901 1860.05 185.8 1859 187.599C1857.95 189.389 1857.42 192.017 1857.41 195.483C1857.4 197.803 1857.63 199.754 1858.11 201.335C1858.59 202.917 1859.27 204.11 1860.15 204.915C1861.03 205.71 1862.08 206.108 1863.29 206.108ZM1881.31 210.312C1880.45 210.312 1879.71 210.009 1879.09 209.403C1878.48 208.797 1878.18 208.059 1878.18 207.188C1878.18 206.335 1878.48 205.606 1879.09 205C1879.71 204.394 1880.45 204.091 1881.31 204.091C1882.14 204.091 1882.87 204.394 1883.48 205C1884.11 205.606 1884.43 206.335 1884.43 207.188C1884.43 207.765 1884.27 208.291 1883.98 208.764C1883.7 209.238 1883.32 209.616 1882.84 209.901C1882.38 210.175 1881.87 210.312 1881.31 210.312ZM1899.45 210.398C1897.55 210.398 1895.86 210.043 1894.36 209.332C1892.87 208.613 1891.68 207.628 1890.8 206.378C1889.93 205.128 1889.46 203.698 1889.41 202.088H1894.52C1894.61 203.281 1895.13 204.257 1896.07 205.014C1897.01 205.762 1898.13 206.136 1899.45 206.136C1900.48 206.136 1901.4 205.9 1902.2 205.426C1903.01 204.953 1903.64 204.295 1904.11 203.452C1904.57 202.609 1904.8 201.648 1904.79 200.568C1904.8 199.47 1904.57 198.494 1904.09 197.642C1903.62 196.79 1902.97 196.122 1902.15 195.639C1901.32 195.147 1900.38 194.901 1899.31 194.901C1898.44 194.891 1897.58 195.052 1896.74 195.384C1895.89 195.715 1895.23 196.151 1894.73 196.69L1889.97 195.909L1891.49 180.909H1908.37V185.312H1895.86L1895.02 193.026H1895.19C1895.73 192.391 1896.49 191.866 1897.47 191.449C1898.46 191.023 1899.54 190.81 1900.71 190.81C1902.47 190.81 1904.05 191.226 1905.43 192.06C1906.81 192.884 1907.9 194.02 1908.7 195.469C1909.49 196.918 1909.89 198.575 1909.89 200.44C1909.89 202.363 1909.44 204.077 1908.55 205.582C1907.67 207.079 1906.45 208.258 1904.88 209.119C1903.31 209.972 1901.5 210.398 1899.45 210.398Z" fill="#050505"/>
<circle cx="1746" cy="228" r="22" fill="#628EFF"/>
<rect x="1747.5" y="163.5" width="186" height="63" stroke="black" stroke-width="3"/>
<rect x="306.5" y="596.5" width="177" height="63" fill="white"/>
<path d="M341.418 613.909V643H336.148V619.037H335.977L329.173 623.384V618.554L336.403 613.909H341.418ZM350.427 643.312C349.565 643.312 348.826 643.009 348.211 642.403C347.595 641.797 347.292 641.059 347.302 640.188C347.292 639.335 347.595 638.606 348.211 638C348.826 637.394 349.565 637.091 350.427 637.091C351.26 637.091 351.985 637.394 352.6 638C353.225 638.606 353.542 639.335 353.552 640.188C353.542 640.765 353.391 641.291 353.097 641.764C352.813 642.238 352.434 642.616 351.961 642.901C351.497 643.175 350.986 643.312 350.427 643.312ZM368.566 643.398C366.672 643.398 364.977 643.043 363.481 642.332C361.985 641.613 360.796 640.628 359.915 639.378C359.044 638.128 358.58 636.698 358.523 635.088H363.637C363.732 636.281 364.248 637.257 365.185 638.014C366.123 638.762 367.25 639.136 368.566 639.136C369.598 639.136 370.517 638.9 371.322 638.426C372.127 637.953 372.761 637.295 373.225 636.452C373.689 635.609 373.916 634.648 373.907 633.568C373.916 632.47 373.684 631.494 373.211 630.642C372.737 629.79 372.089 629.122 371.265 628.639C370.441 628.147 369.494 627.901 368.424 627.901C367.553 627.891 366.696 628.052 365.853 628.384C365.01 628.715 364.343 629.151 363.85 629.69L359.092 628.909L360.612 613.909H377.487V618.312H364.972L364.134 626.026H364.305C364.844 625.391 365.607 624.866 366.592 624.449C367.576 624.023 368.656 623.81 369.83 623.81C371.592 623.81 373.164 624.226 374.546 625.06C375.929 625.884 377.018 627.02 377.813 628.469C378.609 629.918 379.006 631.575 379.006 633.44C379.006 635.363 378.561 637.077 377.671 638.582C376.79 640.079 375.564 641.258 373.992 642.119C372.43 642.972 370.621 643.398 368.566 643.398ZM388.882 639.023L388.697 640.585C388.565 641.778 388.328 642.991 387.987 644.222C387.656 645.462 387.305 646.603 386.936 647.645C386.567 648.687 386.268 649.506 386.041 650.102H382.575C382.708 649.525 382.888 648.739 383.115 647.744C383.352 646.75 383.579 645.633 383.797 644.392C384.015 643.152 384.161 641.892 384.237 640.614L384.337 639.023H388.882ZM414.049 643.398C412.004 643.398 410.185 643.047 408.594 642.347C407.013 641.646 405.763 640.67 404.844 639.42C403.926 638.17 403.438 636.726 403.381 635.088H408.722C408.77 635.874 409.03 636.561 409.504 637.148C409.977 637.725 410.607 638.175 411.393 638.497C412.179 638.819 413.059 638.98 414.035 638.98C415.076 638.98 416 638.8 416.805 638.44C417.61 638.071 418.239 637.56 418.694 636.906C419.148 636.253 419.371 635.5 419.362 634.648C419.371 633.767 419.144 632.991 418.68 632.318C418.216 631.646 417.543 631.12 416.663 630.741C415.791 630.363 414.74 630.173 413.509 630.173H410.938V626.111H413.509C414.522 626.111 415.408 625.936 416.165 625.585C416.933 625.235 417.534 624.742 417.969 624.108C418.405 623.464 418.618 622.721 418.609 621.878C418.618 621.054 418.433 620.339 418.055 619.733C417.685 619.117 417.16 618.639 416.478 618.298C415.806 617.957 415.015 617.787 414.106 617.787C413.216 617.787 412.392 617.948 411.634 618.27C410.877 618.592 410.266 619.051 409.802 619.648C409.338 620.235 409.092 620.936 409.063 621.75H403.992C404.03 620.121 404.499 618.691 405.398 617.46C406.308 616.22 407.52 615.254 409.035 614.562C410.55 613.862 412.25 613.511 414.134 613.511C416.076 613.511 417.761 613.876 419.191 614.605C420.63 615.325 421.743 616.295 422.529 617.517C423.315 618.739 423.708 620.088 423.708 621.565C423.718 623.204 423.235 624.577 422.259 625.685C421.293 626.793 420.024 627.517 418.452 627.858V628.085C420.498 628.369 422.065 629.127 423.154 630.358C424.253 631.58 424.797 633.099 424.788 634.918C424.788 636.546 424.324 638.005 423.396 639.293C422.477 640.571 421.208 641.575 419.589 642.304C417.979 643.033 416.132 643.398 414.049 643.398ZM432.028 643.312C431.167 643.312 430.428 643.009 429.812 642.403C429.197 641.797 428.894 641.059 428.903 640.188C428.894 639.335 429.197 638.606 429.812 638C430.428 637.394 431.167 637.091 432.028 637.091C432.862 637.091 433.586 637.394 434.202 638C434.827 638.606 435.144 639.335 435.153 640.188C435.144 640.765 434.992 641.291 434.699 641.764C434.415 642.238 434.036 642.616 433.562 642.901C433.098 643.175 432.587 643.312 432.028 643.312ZM450.168 643.398C448.274 643.398 446.579 643.043 445.082 642.332C443.586 641.613 442.398 640.628 441.517 639.378C440.646 638.128 440.182 636.698 440.125 635.088H445.239C445.333 636.281 445.849 637.257 446.787 638.014C447.724 638.762 448.851 639.136 450.168 639.136C451.2 639.136 452.118 638.9 452.923 638.426C453.728 637.953 454.363 637.295 454.827 636.452C455.291 635.609 455.518 634.648 455.509 633.568C455.518 632.47 455.286 631.494 454.812 630.642C454.339 629.79 453.69 629.122 452.866 628.639C452.043 628.147 451.096 627.901 450.026 627.901C449.154 627.891 448.297 628.052 447.455 628.384C446.612 628.715 445.944 629.151 445.452 629.69L440.693 628.909L442.213 613.909H459.088V618.312H446.574L445.736 626.026H445.906C446.446 625.391 447.208 624.866 448.193 624.449C449.178 624.023 450.258 623.81 451.432 623.81C453.193 623.81 454.765 624.226 456.148 625.06C457.53 625.884 458.619 627.02 459.415 628.469C460.21 629.918 460.608 631.575 460.608 633.44C460.608 635.363 460.163 637.077 459.273 638.582C458.392 640.079 457.166 641.258 455.594 642.119C454.031 642.972 452.223 643.398 450.168 643.398Z" fill="#050505"/>
<circle cx="305" cy="661" r="22" fill="#FF8947"/>
<rect x="306.5" y="596.5" width="177" height="63" stroke="black" stroke-width="3"/>
<rect x="1106.5" y="647.5" width="177" height="63" fill="white"/>
<path d="M1141.42 664.909V694H1136.15V670.037H1135.98L1129.17 674.384V669.554L1136.4 664.909H1141.42ZM1150.43 694.312C1149.57 694.312 1148.83 694.009 1148.21 693.403C1147.6 692.797 1147.29 692.059 1147.3 691.188C1147.29 690.335 1147.6 689.606 1148.21 689C1148.83 688.394 1149.57 688.091 1150.43 688.091C1151.26 688.091 1151.98 688.394 1152.6 689C1153.23 689.606 1153.54 690.335 1153.55 691.188C1153.54 691.765 1153.39 692.291 1153.1 692.764C1152.81 693.238 1152.43 693.616 1151.96 693.901C1151.5 694.175 1150.99 694.312 1150.43 694.312ZM1168.57 694.398C1166.67 694.398 1164.98 694.043 1163.48 693.332C1161.98 692.613 1160.8 691.628 1159.92 690.378C1159.04 689.128 1158.58 687.698 1158.52 686.088H1163.64C1163.73 687.281 1164.25 688.257 1165.19 689.014C1166.12 689.762 1167.25 690.136 1168.57 690.136C1169.6 690.136 1170.52 689.9 1171.32 689.426C1172.13 688.953 1172.76 688.295 1173.23 687.452C1173.69 686.609 1173.92 685.648 1173.91 684.568C1173.92 683.47 1173.68 682.494 1173.21 681.642C1172.74 680.79 1172.09 680.122 1171.26 679.639C1170.44 679.147 1169.49 678.901 1168.42 678.901C1167.55 678.891 1166.7 679.052 1165.85 679.384C1165.01 679.715 1164.34 680.151 1163.85 680.69L1159.09 679.909L1160.61 664.909H1177.49V669.312H1164.97L1164.13 677.026H1164.3C1164.84 676.391 1165.61 675.866 1166.59 675.449C1167.58 675.023 1168.66 674.81 1169.83 674.81C1171.59 674.81 1173.16 675.226 1174.55 676.06C1175.93 676.884 1177.02 678.02 1177.81 679.469C1178.61 680.918 1179.01 682.575 1179.01 684.44C1179.01 686.363 1178.56 688.077 1177.67 689.582C1176.79 691.079 1175.56 692.258 1173.99 693.119C1172.43 693.972 1170.62 694.398 1168.57 694.398ZM1188.88 690.023L1188.7 691.585C1188.56 692.778 1188.33 693.991 1187.99 695.222C1187.66 696.462 1187.31 697.603 1186.94 698.645C1186.57 699.687 1186.27 700.506 1186.04 701.102H1182.58C1182.71 700.525 1182.89 699.739 1183.12 698.744C1183.35 697.75 1183.58 696.633 1183.8 695.392C1184.01 694.152 1184.16 692.892 1184.24 691.614L1184.34 690.023H1188.88ZM1214.05 694.398C1212 694.398 1210.19 694.047 1208.59 693.347C1207.01 692.646 1205.76 691.67 1204.84 690.42C1203.93 689.17 1203.44 687.726 1203.38 686.088H1208.72C1208.77 686.874 1209.03 687.561 1209.5 688.148C1209.98 688.725 1210.61 689.175 1211.39 689.497C1212.18 689.819 1213.06 689.98 1214.03 689.98C1215.08 689.98 1216 689.8 1216.8 689.44C1217.61 689.071 1218.24 688.56 1218.69 687.906C1219.15 687.253 1219.37 686.5 1219.36 685.648C1219.37 684.767 1219.14 683.991 1218.68 683.318C1218.22 682.646 1217.54 682.12 1216.66 681.741C1215.79 681.363 1214.74 681.173 1213.51 681.173H1210.94V677.111H1213.51C1214.52 677.111 1215.41 676.936 1216.17 676.585C1216.93 676.235 1217.53 675.742 1217.97 675.108C1218.41 674.464 1218.62 673.721 1218.61 672.878C1218.62 672.054 1218.43 671.339 1218.05 670.733C1217.69 670.117 1217.16 669.639 1216.48 669.298C1215.81 668.957 1215.01 668.787 1214.11 668.787C1213.22 668.787 1212.39 668.948 1211.63 669.27C1210.88 669.592 1210.27 670.051 1209.8 670.648C1209.34 671.235 1209.09 671.936 1209.06 672.75H1203.99C1204.03 671.121 1204.5 669.691 1205.4 668.46C1206.31 667.22 1207.52 666.254 1209.03 665.562C1210.55 664.862 1212.25 664.511 1214.13 664.511C1216.08 664.511 1217.76 664.876 1219.19 665.605C1220.63 666.325 1221.74 667.295 1222.53 668.517C1223.32 669.739 1223.71 671.088 1223.71 672.565C1223.72 674.204 1223.23 675.577 1222.26 676.685C1221.29 677.793 1220.02 678.517 1218.45 678.858V679.085C1220.5 679.369 1222.07 680.127 1223.15 681.358C1224.25 682.58 1224.8 684.099 1224.79 685.918C1224.79 687.546 1224.32 689.005 1223.4 690.293C1222.48 691.571 1221.21 692.575 1219.59 693.304C1217.98 694.033 1216.13 694.398 1214.05 694.398ZM1232.03 694.312C1231.17 694.312 1230.43 694.009 1229.81 693.403C1229.2 692.797 1228.89 692.059 1228.9 691.188C1228.89 690.335 1229.2 689.606 1229.81 689C1230.43 688.394 1231.17 688.091 1232.03 688.091C1232.86 688.091 1233.59 688.394 1234.2 689C1234.83 689.606 1235.14 690.335 1235.15 691.188C1235.14 691.765 1234.99 692.291 1234.7 692.764C1234.41 693.238 1234.04 693.616 1233.56 693.901C1233.1 694.175 1232.59 694.312 1232.03 694.312ZM1250.17 694.398C1248.27 694.398 1246.58 694.043 1245.08 693.332C1243.59 692.613 1242.4 691.628 1241.52 690.378C1240.65 689.128 1240.18 687.698 1240.12 686.088H1245.24C1245.33 687.281 1245.85 688.257 1246.79 689.014C1247.72 689.762 1248.85 690.136 1250.17 690.136C1251.2 690.136 1252.12 689.9 1252.92 689.426C1253.73 688.953 1254.36 688.295 1254.83 687.452C1255.29 686.609 1255.52 685.648 1255.51 684.568C1255.52 683.47 1255.29 682.494 1254.81 681.642C1254.34 680.79 1253.69 680.122 1252.87 679.639C1252.04 679.147 1251.1 678.901 1250.03 678.901C1249.15 678.891 1248.3 679.052 1247.45 679.384C1246.61 679.715 1245.94 680.151 1245.45 680.69L1240.69 679.909L1242.21 664.909H1259.09V669.312H1246.57L1245.74 677.026H1245.91C1246.45 676.391 1247.21 675.866 1248.19 675.449C1249.18 675.023 1250.26 674.81 1251.43 674.81C1253.19 674.81 1254.77 675.226 1256.15 676.06C1257.53 676.884 1258.62 678.02 1259.41 679.469C1260.21 680.918 1260.61 682.575 1260.61 684.44C1260.61 686.363 1260.16 688.077 1259.27 689.582C1258.39 691.079 1257.17 692.258 1255.59 693.119C1254.03 693.972 1252.22 694.398 1250.17 694.398Z" fill="#050505"/>
<circle cx="1105" cy="712" r="22" fill="#FF8947"/>
<rect x="1106.5" y="647.5" width="177" height="63" stroke="black" stroke-width="3"/>
<rect x="1984.5" y="578.5" width="177" height="63" fill="white"/>
<path d="M2019.42 595.909V625H2014.15V601.037H2013.98L2007.17 605.384V600.554L2014.4 595.909H2019.42ZM2028.43 625.312C2027.57 625.312 2026.83 625.009 2026.21 624.403C2025.6 623.797 2025.29 623.059 2025.3 622.188C2025.29 621.335 2025.6 620.606 2026.21 620C2026.83 619.394 2027.57 619.091 2028.43 619.091C2029.26 619.091 2029.98 619.394 2030.6 620C2031.23 620.606 2031.54 621.335 2031.55 622.188C2031.54 622.765 2031.39 623.291 2031.1 623.764C2030.81 624.238 2030.43 624.616 2029.96 624.901C2029.5 625.175 2028.99 625.312 2028.43 625.312ZM2046.57 625.398C2044.67 625.398 2042.98 625.043 2041.48 624.332C2039.98 623.613 2038.8 622.628 2037.92 621.378C2037.04 620.128 2036.58 618.698 2036.52 617.088H2041.64C2041.73 618.281 2042.25 619.257 2043.19 620.014C2044.12 620.762 2045.25 621.136 2046.57 621.136C2047.6 621.136 2048.52 620.9 2049.32 620.426C2050.13 619.953 2050.76 619.295 2051.23 618.452C2051.69 617.609 2051.92 616.648 2051.91 615.568C2051.92 614.47 2051.68 613.494 2051.21 612.642C2050.74 611.79 2050.09 611.122 2049.26 610.639C2048.44 610.147 2047.49 609.901 2046.42 609.901C2045.55 609.891 2044.7 610.052 2043.85 610.384C2043.01 610.715 2042.34 611.151 2041.85 611.69L2037.09 610.909L2038.61 595.909H2055.49V600.312H2042.97L2042.13 608.026H2042.3C2042.84 607.391 2043.61 606.866 2044.59 606.449C2045.58 606.023 2046.66 605.81 2047.83 605.81C2049.59 605.81 2051.16 606.226 2052.55 607.06C2053.93 607.884 2055.02 609.02 2055.81 610.469C2056.61 611.918 2057.01 613.575 2057.01 615.44C2057.01 617.363 2056.56 619.077 2055.67 620.582C2054.79 622.079 2053.56 623.258 2051.99 624.119C2050.43 624.972 2048.62 625.398 2046.57 625.398ZM2066.88 621.023L2066.7 622.585C2066.56 623.778 2066.33 624.991 2065.99 626.222C2065.66 627.462 2065.31 628.603 2064.94 629.645C2064.57 630.687 2064.27 631.506 2064.04 632.102H2060.58C2060.71 631.525 2060.89 630.739 2061.12 629.744C2061.35 628.75 2061.58 627.633 2061.8 626.392C2062.01 625.152 2062.16 623.892 2062.24 622.614L2062.34 621.023H2066.88ZM2092.05 625.398C2090 625.398 2088.19 625.047 2086.59 624.347C2085.01 623.646 2083.76 622.67 2082.84 621.42C2081.93 620.17 2081.44 618.726 2081.38 617.088H2086.72C2086.77 617.874 2087.03 618.561 2087.5 619.148C2087.98 619.725 2088.61 620.175 2089.39 620.497C2090.18 620.819 2091.06 620.98 2092.03 620.98C2093.08 620.98 2094 620.8 2094.8 620.44C2095.61 620.071 2096.24 619.56 2096.69 618.906C2097.15 618.253 2097.37 617.5 2097.36 616.648C2097.37 615.767 2097.14 614.991 2096.68 614.318C2096.22 613.646 2095.54 613.12 2094.66 612.741C2093.79 612.363 2092.74 612.173 2091.51 612.173H2088.94V608.111H2091.51C2092.52 608.111 2093.41 607.936 2094.17 607.585C2094.93 607.235 2095.53 606.742 2095.97 606.108C2096.41 605.464 2096.62 604.721 2096.61 603.878C2096.62 603.054 2096.43 602.339 2096.05 601.733C2095.69 601.117 2095.16 600.639 2094.48 600.298C2093.81 599.957 2093.01 599.787 2092.11 599.787C2091.22 599.787 2090.39 599.948 2089.63 600.27C2088.88 600.592 2088.27 601.051 2087.8 601.648C2087.34 602.235 2087.09 602.936 2087.06 603.75H2081.99C2082.03 602.121 2082.5 600.691 2083.4 599.46C2084.31 598.22 2085.52 597.254 2087.03 596.562C2088.55 595.862 2090.25 595.511 2092.13 595.511C2094.08 595.511 2095.76 595.876 2097.19 596.605C2098.63 597.325 2099.74 598.295 2100.53 599.517C2101.32 600.739 2101.71 602.088 2101.71 603.565C2101.72 605.204 2101.23 606.577 2100.26 607.685C2099.29 608.793 2098.02 609.517 2096.45 609.858V610.085C2098.5 610.369 2100.07 611.127 2101.15 612.358C2102.25 613.58 2102.8 615.099 2102.79 616.918C2102.79 618.546 2102.32 620.005 2101.4 621.293C2100.48 622.571 2099.21 623.575 2097.59 624.304C2095.98 625.033 2094.13 625.398 2092.05 625.398ZM2110.03 625.312C2109.17 625.312 2108.43 625.009 2107.81 624.403C2107.2 623.797 2106.89 623.059 2106.9 622.188C2106.89 621.335 2107.2 620.606 2107.81 620C2108.43 619.394 2109.17 619.091 2110.03 619.091C2110.86 619.091 2111.59 619.394 2112.2 620C2112.83 620.606 2113.14 621.335 2113.15 622.188C2113.14 622.765 2112.99 623.291 2112.7 623.764C2112.41 624.238 2112.04 624.616 2111.56 624.901C2111.1 625.175 2110.59 625.312 2110.03 625.312ZM2128.17 625.398C2126.27 625.398 2124.58 625.043 2123.08 624.332C2121.59 623.613 2120.4 622.628 2119.52 621.378C2118.65 620.128 2118.18 618.698 2118.12 617.088H2123.24C2123.33 618.281 2123.85 619.257 2124.79 620.014C2125.72 620.762 2126.85 621.136 2128.17 621.136C2129.2 621.136 2130.12 620.9 2130.92 620.426C2131.73 619.953 2132.36 619.295 2132.83 618.452C2133.29 617.609 2133.52 616.648 2133.51 615.568C2133.52 614.47 2133.29 613.494 2132.81 612.642C2132.34 611.79 2131.69 611.122 2130.87 610.639C2130.04 610.147 2129.1 609.901 2128.03 609.901C2127.15 609.891 2126.3 610.052 2125.45 610.384C2124.61 610.715 2123.94 611.151 2123.45 611.69L2118.69 610.909L2120.21 595.909H2137.09V600.312H2124.57L2123.74 608.026H2123.91C2124.45 607.391 2125.21 606.866 2126.19 606.449C2127.18 606.023 2128.26 605.81 2129.43 605.81C2131.19 605.81 2132.77 606.226 2134.15 607.06C2135.53 607.884 2136.62 609.02 2137.41 610.469C2138.21 611.918 2138.61 613.575 2138.61 615.44C2138.61 617.363 2138.16 619.077 2137.27 620.582C2136.39 622.079 2135.17 623.258 2133.59 624.119C2132.03 624.972 2130.22 625.398 2128.17 625.398Z" fill="#050505"/>
<circle cx="1983" cy="643" r="22" fill="#FF8947"/>
<rect x="1984.5" y="578.5" width="177" height="63" stroke="black" stroke-width="3"/>
</svg>
